<?xml version="1.0" encoding="UTF-8" standalone="no"?>
<!-- Created with Inkscape (http://www.inkscape.org/) -->
<svg xmlns:dc="http://purl.org/dc/elements/1.1/" xmlns:cc="http://web.resource.org/cc/" xmlns:rdf="http://www.w3.org/1999/02/22-rdf-syntax-ns#" xmlns:svg="http://www.w3.org/2000/svg" xmlns="http://www.w3.org/2000/svg" xmlns:sodipodi="http://sodipodi.sourceforge.net/DTD/sodipodi-0.dtd" xmlns:inkscape="http://www.inkscape.org/namespaces/inkscape" version="1.0" width="107.62" height="179.78" id="svg2379" sodipodi:version="0.32" inkscape:version="0.45pre1" sodipodi:docname="Tetragonal-body-centered.svg" inkscape:output_extension="org.inkscape.output.svg.inkscape" sodipodi:docbase="C:\Documents and Settings\Ed\My Documents\Wikipedia" sodipodi:modified="true">
  <metadata id="metadata7590">
    <rdf:RDF>
      <cc:Work rdf:about="">
        <dc:format>image/svg+xml</dc:format>
        <dc:type rdf:resource="http://purl.org/dc/dcmitype/StillImage"/>
      </cc:Work>
    </rdf:RDF>
  </metadata>
  <sodipodi:namedview inkscape:window-height="573" inkscape:window-width="744" inkscape:pageshadow="2" inkscape:pageopacity="0.0" guidetolerance="10.0" gridtolerance="10.0" objecttolerance="10.0" borderopacity="1.0" bordercolor="#666666" pagecolor="#ffffff" id="base" inkscape:zoom="2.0970075" inkscape:cx="53.810001" inkscape:cy="89.889999" inkscape:window-x="66" inkscape:window-y="84" inkscape:current-layer="svg2379"/>
  <defs id="defs2381">
    <marker refX="0" refY="0" orient="auto" style="overflow:visible" id="Dot_m">
      <path d="M -2.5,-1 C -2.5,1.76 -4.74,4 -7.5,4 C -10.26,4 -12.5,1.76 -12.5,-1 C -12.5,-3.76 -10.26,-6 -7.5,-6 C -4.74,-6 -2.5,-3.76 -2.5,-1 z " transform="matrix(0.4,0,0,0.4,2.96,0.4)" style="fill-rule:evenodd;stroke:#000000;stroke-width:1pt;marker-start:none;marker-end:none" id="path3527"/>
    </marker>
  </defs>
  <path id="path6854" style="fill:none;fill-rule:evenodd;stroke:#c0c0c0;stroke-width:1.75;stroke-linecap:butt;stroke-linejoin:miter;stroke-miterlimit:4;stroke-dasharray:none;stroke-opacity:1" d="M 7.0890454,130.15668 L 94.242603,56.764211"/>
  <path id="path6858" style="fill:none;fill-rule:evenodd;stroke:#c0c0c0;stroke-width:1.75;stroke-linecap:butt;stroke-linejoin:miter;stroke-miterlimit:4;stroke-dasharray:none;stroke-opacity:1" d="M 23.769152,164.7679 L 79.551122,22.152989"/>
  <path id="path6856" style="fill:none;fill-rule:evenodd;stroke:#c0c0c0;stroke-width:1.75;stroke-linecap:butt;stroke-linejoin:miter;stroke-miterlimit:4;stroke-dasharray:none;stroke-opacity:1" d="M 7.0890454,21.735987 L 95.076609,165.18491"/>
  <path id="path6860" style="fill:none;fill-rule:evenodd;stroke:#c0c0c0;stroke-width:1.75;stroke-linecap:butt;stroke-linejoin:miter;stroke-miterlimit:4;stroke-dasharray:none;stroke-opacity:1" d="M 23.191842,56.090513 L 79.390815,130.15668"/>
  <path id="path3635" style="fill:#c0c0c0;fill-opacity:1;fill-rule:evenodd;stroke:none;stroke-width:0.7pt;marker-start:none;marker-end:none" d="M 82.521602,128.40088 C 83.743972,129.89702 83.521762,132.10335 82.025612,133.32571 C 80.529472,134.54807 78.323142,134.32587 77.100782,132.82972 C 75.878422,131.33357 76.100622,129.12725 77.596772,127.90489 C 79.092922,126.68253 81.299242,126.90473 82.521602,128.40088 z "/>
  <path id="path3637" style="fill:#c0c0c0;fill-opacity:1;fill-rule:evenodd;stroke:none;stroke-width:1.75;stroke-linecap:butt;stroke-linejoin:miter;stroke-miterlimit:4;stroke-dasharray:none;stroke-opacity:1" d="M 96.404447,164.92942 L 96.435697,164.64817 L 96.310697,164.36692 L 80.091942,129.99192 L 79.841942,129.49192 L 79.310692,129.49192 L 7.4379144,129.49192 L 6.7191643,129.49192 L 6.5629143,130.21067 L 8.1566644,131.24192 L 78.748192,131.24192 L 94.623197,164.86692 L 96.404447,164.92942 z "/>
  <path id="path3639" style="fill:none;fill-rule:evenodd;stroke:#c0c0c0;stroke-width:1.75;stroke-linecap:butt;stroke-linejoin:miter;stroke-miterlimit:4;stroke-dasharray:none;stroke-opacity:1" d="M 79.759517,22.158585 L 80.049922,129.89912"/>
  <path id="path3623" style="fill:#000000;fill-rule:evenodd;stroke:none;stroke-width:0.7pt;marker-start:none;marker-end:none" d="M 7.3926244,134.02031 C 5.4747043,134.25309 3.7292043,132.88544 3.4964143,130.96752 C 3.2636343,129.04959 4.6312843,127.30409 6.5492143,127.07131 C 8.4671344,126.83853 10.212644,128.20618 10.445424,130.1241 C 10.678203,132.04203 9.3105544,133.78753 7.3926244,134.02031 z "/>
  <path id="path3599" style="fill:#000000;fill-opacity:1;fill-rule:evenodd;stroke:none;stroke-width:1.75;stroke-linecap:butt;stroke-linejoin:miter;stroke-miterlimit:4;stroke-dasharray:none;stroke-opacity:1" d="M 6.1314113,20.742176 L 6.1088343,130.44111 L 6.0775843,130.72236 L 6.2025843,131.00361 L 22.421333,165.37861 L 22.671333,165.87861 L 23.202583,165.87861 L 95.075367,165.87861 L 95.794117,165.87861 L 95.950367,165.15986 L 95.972927,55.929676 L 94.254177,55.585926 L 94.356617,164.12861 L 23.765083,164.12861 L 7.8900844,130.50361 L 7.8501614,21.085926 L 6.1314113,20.742176 z "/>
  <path id="path3625" style="fill:#000000;fill-rule:evenodd;stroke:none;stroke-width:0.7pt;marker-start:none;marker-end:none" d="M 26.110073,166.82787 C 25.075963,168.45981 22.912213,168.94501 21.280263,167.9109 C 19.648323,166.87679 19.163123,164.71304 20.197233,163.08109 C 21.231343,161.44915 23.395103,160.96395 25.027043,161.99806 C 26.658983,163.03217 27.144183,165.19593 26.110073,166.82787 z "/>
  <path id="path2430" style="fill:#000000;fill-opacity:1;fill-rule:evenodd;stroke:none;stroke-width:1.75;stroke-linecap:butt;stroke-linejoin:miter;stroke-miterlimit:4;stroke-dasharray:none;stroke-opacity:1" d="M 5.7914743,20.940429 L 6.3852243,22.190429 L 23.103974,56.565429 L 23.353974,57.065429 L 23.885224,57.065429 L 95.757997,57.065429 L 97.164248,57.065429 L 96.570497,55.815429 L 80.320506,21.440429 L 80.101756,20.940429 L 79.539256,20.940429 L 7.1977244,20.940429 L 5.7914743,20.940429 z M 8.6039744,22.690429 L 79.008006,22.690429 L 94.382997,55.315429 L 24.478974,55.315429 L 8.6039744,22.690429 z "/>
  <path id="path3627" style="fill:#000000;fill-rule:evenodd;stroke:none;stroke-width:0.7pt;marker-start:none;marker-end:none" d="M 97.745908,162.82182 C 98.968278,164.31796 98.746068,166.52429 97.249918,167.74665 C 95.753777,168.96901 93.547447,168.74681 92.325087,167.25066 C 91.102722,165.75451 91.324927,163.54819 92.821077,162.32583 C 94.317227,161.10347 96.523547,161.32567 97.745908,162.82182 z "/>
  <path id="path3611" style="fill:#000000;fill-opacity:1;fill-rule:evenodd;stroke:none;stroke-width:0.7pt;marker-start:none;marker-end:none" d="M 93.162519,59.079047 C 91.530579,58.044937 91.045374,55.881187 92.079489,54.249237 C 93.113599,52.617297 95.277349,52.132097 96.909299,53.166207 C 98.541238,54.200317 99.026438,56.364077 97.992328,57.996017 C 96.958219,59.627957 94.794459,60.113157 93.162519,59.079047 z "/>
  <path id="path3613" style="fill:#000000;fill-opacity:1;fill-rule:evenodd;stroke:none;stroke-width:0.7pt;marker-start:none;marker-end:none" d="M 20.186726,54.362229 C 21.211596,52.724469 23.372576,52.227059 25.010336,53.251939 C 26.648096,54.276819 27.145506,56.437799 26.120626,58.075559 C 25.095746,59.713309 22.934766,60.210719 21.297016,59.185849 C 19.659256,58.160969 19.161846,55.999989 20.186726,54.362229 z "/>
  <path id="path3609" style="fill:#000000;fill-opacity:1;fill-rule:evenodd;stroke:none;stroke-width:0.7pt;marker-start:none;marker-end:none" d="M 82.768025,23.641019 C 81.733915,25.272959 79.570165,25.758159 77.938212,24.724049 C 76.306272,23.689939 75.821072,21.526189 76.855182,19.894239 C 77.889292,18.262299 80.053055,17.777099 81.684995,18.811209 C 83.316935,19.845319 83.802135,22.009079 82.768025,23.641019 z "/>
  <path id="path3615" style="fill:#000000;fill-opacity:1;fill-rule:evenodd;stroke:none;stroke-width:0.7pt;marker-start:none;marker-end:none" d="M 8.8272934,18.897489 C 10.465053,19.922359 10.962463,22.083339 9.9375834,23.721099 C 8.9127034,25.358859 6.7517233,25.856269 5.1139633,24.831389 C 3.4762133,23.806509 2.9788033,21.645529 4.0036733,20.007779 C 5.0285533,18.370019 7.1895334,17.872609 8.8272934,18.897489 z "/>
  <path id="path6134" style="fill:none;fill-rule:evenodd;stroke:#000000;stroke-width:1.75;stroke-linecap:butt;stroke-linejoin:miter;stroke-miterlimit:4;stroke-dasharray:none;stroke-opacity:1" d="M 23.283068,57.225741 L 23.573473,166.63428"/>
  <path style="font-size:16.6307106px;font-style:normal;font-weight:normal;fill:#000000;fill-opacity:1;stroke:none;stroke-width:1px;stroke-linecap:butt;stroke-linejoin:miter;stroke-opacity:1;font-family:Bitstream Vera Sans" d="M 9.121872,144.27036 L 9.8689547,143.73441 L 10.388664,143.86434 L 9.1949562,149.01271 C 9.0758491,149.52701 9.0162991,149.92762 9.016306,150.21454 C 9.0162991,150.43109 9.0514878,150.58808 9.121872,150.68553 C 9.1922423,150.78297 9.3032219,150.83169 9.454811,150.83169 C 9.6172129,150.83169 9.7904493,150.76538 9.9745208,150.63274 C 10.158577,150.50011 10.418431,150.24702 10.754085,149.87348 L 11.216952,150.32823 C 10.729715,150.84794 10.314219,151.21742 9.9704605,151.43667 C 9.6266867,151.65592 9.2544992,151.76555 8.8538967,151.76555 C 8.5182445,151.76555 8.2502694,151.65457 8.0499707,151.43261 C 7.8496603,151.21065 7.749508,150.91561 7.7495136,150.54748 C 7.749508,150.24973 7.8117648,149.93303 7.9362842,149.59738 L 7.8307182,149.5649 C 7.3110033,150.32281 6.8183623,150.87771 6.3527937,151.2296 C 5.8872167,151.58148 5.3945757,151.75743 4.8748693,151.75743 C 4.2793664,151.75743 3.8178538,151.53276 3.4903301,151.08343 C 3.1628037,150.6341 2.9990412,150.00341 2.999042,149.19136 C 2.9990412,148.26022 3.1817514,147.36561 3.5471734,146.50755 C 3.9125925,145.64949 4.4147074,144.97279 5.0535195,144.47743 C 5.6923258,143.98209 6.4042191,143.73442 7.1892015,143.73441 C 7.5410829,143.73442 7.8699614,143.77367 8.1758379,143.85216 C 8.4817024,143.93066 8.7970468,144.07006 9.121872,144.27036 L 9.121872,144.27036 z M 8.4072712,146.69026 C 8.4559876,146.4683 8.4884695,146.27612 8.5047167,146.1137 C 8.5209513,145.9513 8.5290717,145.77536 8.5290781,145.58587 C 8.5290717,145.16903 8.4397467,144.86316 8.2611028,144.66826 C 8.0824467,144.47338 7.779283,144.37593 7.3516108,144.37593 C 6.794001,144.37593 6.2932395,144.6006 5.849325,145.04992 C 5.405403,145.49926 5.0589302,146.10153 4.8099055,146.85673 C 4.5608756,147.61193 4.4363619,148.36578 4.4363642,149.11828 C 4.4363619,149.6813 4.5135062,150.10221 4.6677974,150.38101 C 4.8220836,150.65981 5.0805847,150.79921 5.4433017,150.79921 C 5.8005985,150.79921 6.1511315,150.64492 6.4949019,150.33635 C 6.8386635,150.02777 7.1932567,149.58791 7.5586827,149.01677 C 7.9240978,148.44563 8.182599,147.78652 8.334187,147.03944 L 8.4072712,146.69026 z " id="text6151"/>
  <path style="font-size:16.6307106px;font-style:normal;font-weight:normal;fill:#000000;fill-opacity:1;stroke:none;stroke-width:1px;stroke-linecap:butt;stroke-linejoin:miter;stroke-opacity:1;font-family:Bitstream Vera Sans" d="M 61.640136,169.28612 L 62.387219,168.75017 L 62.906929,168.8801 L 61.71322,174.02847 C 61.594113,174.54277 61.534563,174.94338 61.53457,175.2303 C 61.534563,175.44685 61.569752,175.60384 61.640136,175.70129 C 61.710507,175.79873 61.821486,175.84746 61.973075,175.84746 C 62.135477,175.84746 62.308714,175.78114 62.492785,175.64851 C 62.676841,175.51587 62.936695,175.26278 63.27235,174.88924 L 63.735216,175.34399 C 63.24798,175.8637 62.832483,176.23318 62.488725,176.45243 C 62.144951,176.67168 61.772763,176.78131 61.372161,176.78131 C 61.036509,176.78131 60.768534,176.67033 60.568235,176.44837 C 60.367925,176.22641 60.267772,175.93137 60.267778,175.56324 C 60.267772,175.26549 60.330029,174.94879 60.454549,174.61315 L 60.348983,174.58066 C 59.829268,175.33858 59.336627,175.89347 58.871058,176.24536 C 58.405481,176.59725 57.91284,176.77319 57.393134,176.77319 C 56.797631,176.77319 56.336118,176.54852 56.008594,176.09919 C 55.681068,175.64986 55.517305,175.01917 55.517306,174.20712 C 55.517305,173.27598 55.700016,172.38138 56.065438,171.52331 C 56.430857,170.66525 56.932972,169.98855 57.571784,169.49319 C 58.21059,168.99785 58.922483,168.75018 59.707466,168.75017 C 60.059347,168.75018 60.388226,168.78943 60.694102,168.86792 C 60.999967,168.94642 61.315311,169.08582 61.640136,169.28612 L 61.640136,169.28612 z M 60.925535,171.70602 C 60.974252,171.48407 61.006734,171.29188 61.022981,171.12947 C 61.039216,170.96706 61.047336,170.79112 61.047342,170.60164 C 61.047336,170.18479 60.958011,169.87892 60.779367,169.68402 C 60.600711,169.48914 60.297547,169.39169 59.869875,169.39169 C 59.312265,169.39169 58.811504,169.61636 58.367589,170.06569 C 57.923667,170.51502 57.577194,171.11729 57.32817,171.87249 C 57.07914,172.6277 56.954626,173.38155 56.954628,174.13404 C 56.954626,174.69706 57.031771,175.11797 57.186062,175.39677 C 57.340348,175.67557 57.598849,175.81498 57.961566,175.81497 C 58.318863,175.81498 58.669396,175.66069 59.013166,175.35211 C 59.356928,175.04353 59.711521,174.60367 60.076947,174.03253 C 60.442362,173.4614 60.700863,172.80229 60.852451,172.0552 L 60.925535,171.70602 z " id="text6155"/>
  <path style="font-size:16.6307106px;font-style:normal;font-weight:normal;fill:#000000;fill-opacity:1;stroke:none;stroke-width:1px;stroke-linecap:butt;stroke-linejoin:miter;stroke-opacity:1;font-family:Bitstream Vera Sans" d="M 103.37041,108.64269 C 103.35958,108.23126 103.32574,107.93351 103.2689,107.74944 C 103.21205,107.56539 103.12002,107.42734 102.99281,107.3353 C 102.86558,107.24328 102.68558,107.19726 102.4528,107.19725 C 101.90601,107.19726 101.41473,107.41516 100.97893,107.85095 C 100.54313,108.28675 100.18718,108.90391 99.911091,109.70242 C 99.634993,110.50093 99.496945,111.26831 99.496947,112.00457 C 99.496945,112.55676 99.605218,112.96684 99.821766,113.23482 C 100.03831,113.50279 100.36313,113.63678 100.79622,113.63678 C 101.28886,113.63678 101.71518,113.5434 102.07519,113.35662 C 102.4352,113.16986 102.8155,112.87617 103.21612,112.47555 L 103.71147,112.9709 C 103.20258,113.53392 102.68964,113.94536 102.17264,114.20521 C 101.65563,114.46507 101.09938,114.595 100.50388,114.595 C 99.718904,114.595 99.123404,114.36221 98.717383,113.89664 C 98.311358,113.43106 98.108347,112.75436 98.108348,111.86652 C 98.108347,111.28726 98.21662,110.65116 98.433166,109.95821 C 98.649711,109.26527 98.966409,108.65623 99.383261,108.13111 C 99.800109,107.60599 100.28734,107.2135 100.84494,106.95364 C 101.40255,106.69379 101.99805,106.56386 102.63145,106.56386 C 103.35145,106.56386 104.01463,106.64507 104.62096,106.80747 L 104.22306,108.64269 L 103.37041,108.64269 z " id="text6159"/>
  <path style="font-size:16.6307106px;font-style:normal;font-weight:normal;fill:#000000;fill-opacity:1;stroke:none;stroke-width:1px;stroke-linecap:butt;stroke-linejoin:miter;stroke-opacity:1;font-family:Bitstream Vera Sans" d="M 42.157135,5.2155743 L 42.904217,4.6796237 L 43.423927,4.8095511 L 42.230219,9.9579254 C 42.111112,10.472224 42.051562,10.872833 42.051569,11.159754 C 42.051562,11.376301 42.08675,11.533297 42.157135,11.630741 C 42.227505,11.728187 42.338484,11.77691 42.490074,11.776909 C 42.652475,11.77691 42.825712,11.710593 43.009783,11.577958 C 43.193839,11.445325 43.453694,11.192237 43.789348,10.818695 L 44.252214,11.273441 C 43.764978,11.793151 43.349481,12.162632 43.005723,12.381884 C 42.661949,12.601136 42.289762,12.710763 41.889159,12.710763 C 41.553507,12.710763 41.285532,12.599783 41.085233,12.377824 C 40.884923,12.155865 40.784771,11.860822 40.784776,11.492693 C 40.784771,11.194944 40.847027,10.878246 40.971547,10.542599 L 40.865981,10.510117 C 40.346266,11.268028 39.853625,11.822926 39.388056,12.174812 C 38.922479,12.526699 38.429838,12.702642 37.910132,12.702642 C 37.314629,12.702642 36.853116,12.477976 36.525593,12.028644 C 36.198066,11.579312 36.034304,10.948624 36.034305,10.136576 C 36.034304,9.2054324 36.217014,8.3108289 36.582436,7.4527622 C 36.947855,6.5947058 37.44997,5.9180012 38.088782,5.4226462 C 38.727588,4.9273055 39.439482,4.6796316 40.224464,4.6796237 C 40.576346,4.6796316 40.905224,4.7188805 41.211101,4.7973704 C 41.516965,4.875876 41.832309,5.0152771 42.157135,5.2155743 L 42.157135,5.2155743 z M 41.442534,7.6354727 C 41.49125,7.4135185 41.523732,7.2213344 41.539979,7.0589197 C 41.556214,6.8965161 41.564334,6.7205729 41.564341,6.5310895 C 41.564334,6.1142455 41.475009,5.808375 41.296365,5.6134771 C 41.117709,5.4185931 40.814546,5.3211476 40.386873,5.3211404 C 39.829264,5.3211476 39.328502,5.5458136 38.884588,5.9951389 C 38.440666,6.4444774 38.094193,7.0467446 37.845168,7.8019422 C 37.596138,8.5571494 37.471624,9.3109984 37.471627,10.063491 C 37.471624,10.626512 37.548769,11.047423 37.70306,11.326224 C 37.857346,11.605027 38.115847,11.744428 38.478564,11.744428 C 38.835861,11.744428 39.186394,11.59014 39.530164,11.281561 C 39.873926,10.972985 40.228519,10.533127 40.593945,9.9619857 C 40.95936,9.3908495 41.217862,8.7317392 41.36945,7.9846526 L 41.442534,7.6354727 z M 49.319383,10.055371 L 49.319383,8.9753493 L 53.428338,8.9753493 L 54.402794,6.6853784 L 49.319383,6.6853784 L 49.319383,5.6053566 L 54.86566,5.6053566 L 55.978164,2.9986876 L 56.96074,2.9986876 L 55.848236,5.6053566 L 59.323795,5.6053566 L 59.323795,6.6853784 L 55.38537,6.6853784 L 54.410914,8.9753493 L 59.323795,8.9753493 L 59.323795,10.055371 L 53.948048,10.055371 L 52.729978,12.913774 L 51.747402,12.913774 L 52.965472,10.055371 L 49.319383,10.055371 z M 70.335146,6.766583 C 70.324312,6.3551524 70.290477,6.0574023 70.23364,5.8733319 C 70.176791,5.689275 70.084759,5.5512272 69.957544,5.4591883 C 69.830318,5.3671636 69.650314,5.3211476 69.417533,5.3211404 C 68.870751,5.3211476 68.379463,5.5390465 67.943669,5.9748377 C 67.507867,6.4106422 67.151921,7.0277968 66.875828,7.8263036 C 66.59973,8.6248198 66.461682,9.3922029 66.461684,10.128455 C 66.461682,10.680649 66.569955,11.090732 66.786503,11.358705 C 67.003046,11.626682 67.327864,11.760669 67.760958,11.760668 C 68.253596,11.760669 68.67992,11.667284 69.039932,11.480512 C 69.399934,11.293743 69.780242,11.000053 70.180857,10.599442 L 70.676205,11.09479 C 70.167317,11.65781 69.654375,12.069247 69.137377,12.329101 C 68.62037,12.588956 68.064119,12.718883 67.468622,12.718883 C 66.683641,12.718883 66.088141,12.486097 65.68212,12.020523 C 65.276095,11.554951 65.073084,10.878246 65.073085,9.9904073 C 65.073084,9.4111507 65.181357,8.7750483 65.397903,8.0820982 C 65.614448,7.3891571 65.931146,6.7801229 66.347998,6.2549938 C 66.764846,5.7298773 67.252073,5.3373886 67.809681,5.0775265 C 68.367282,4.8176794 68.962782,4.6877521 69.596183,4.6877442 C 70.316192,4.6877521 70.979362,4.7689566 71.585697,4.9313581 L 71.187794,6.766583 L 70.335146,6.766583 z " id="text6200"/>
  <path id="path6883" style="fill:#c0c0c0;fill-opacity:1;fill-rule:evenodd;stroke:none;stroke-width:0.7pt;marker-start:none;marker-end:none" d="M 53.713822,91.119794 C 54.936192,92.615934 54.713982,94.822264 53.217832,96.044624 C 51.721692,97.266984 49.515362,97.044784 48.293002,95.548634 C 47.070642,94.052484 47.292842,91.846164 48.788992,90.623804 C 50.285142,89.401444 52.491462,89.623644 53.713822,91.119794 z "/>
</svg>