<?xml version="1.0" encoding="UTF-8" standalone="no"?>
<svg xmlns:dc="http://purl.org/dc/elements/1.1/" xmlns:cc="http://creativecommons.org/ns#" xmlns:rdf="http://www.w3.org/1999/02/22-rdf-syntax-ns#" xmlns:svg="http://www.w3.org/2000/svg" xmlns="http://www.w3.org/2000/svg" version="1.1" id="svg5822" height="206.43748" width="159.69142">
  <defs id="defs5824"/>
  <metadata id="metadata5827">
    <rdf:RDF>
      <cc:Work rdf:about="">
        <dc:format>image/svg+xml</dc:format>
        <dc:type rdf:resource="http://purl.org/dc/dcmitype/StillImage"/>
        <dc:title/>
      </cc:Work>
    </rdf:RDF>
  </metadata>
  <g transform="translate(335.58903,-152.34924)" id="layer1">
    <text id="text6506" y="186.18213" x="-268.77371" style="font-style:normal;font-weight:normal;font-size:40px;line-height:125%;font-family:Sans;letter-spacing:0px;word-spacing:0px;fill:#000000;fill-opacity:1;stroke:none" xml:space="preserve"><tspan y="186.18213" x="-268.77371" id="tspan6508"/></text>
    <g id="g4032">
      <path style="fill:none;stroke:#c0c0c0;stroke-width:0.75;stroke-linecap:butt;stroke-linejoin:miter;stroke-miterlimit:4;stroke-dasharray:none;stroke-opacity:1" d="m -296.95777,343.43795 87.60809,-49.45849" id="path4676-5-7"/>
      <path style="fill:none;stroke:#c0c0c0;stroke-width:0.75;stroke-linecap:butt;stroke-linejoin:miter;stroke-miterlimit:4;stroke-dasharray:none;stroke-opacity:1" d="m -280.69768,293.62659 -44.11047,25.1549 27.65845,25.15489 72.00738,0.11922 43.99126,-25.27411 -27.77768,-25.27411 z" id="path4494-5-7-7-1"/>
      <rect style="fill:#000000;fill-opacity:0;fill-rule:evenodd;stroke:#c0c0c0;stroke-width:0.75;stroke-linejoin:round;stroke-miterlimit:4;stroke-dasharray:none;stroke-opacity:1" id="rect3970-3-5-8-1-6-6-9-2-5-9" width="71.870331" height="116.92113" x="-280.99124" y="176.66731"/>
      <rect style="fill:#000000;fill-opacity:0;fill-rule:evenodd;stroke:#c0c0c0;stroke-width:0.87289125;stroke-linejoin:round;stroke-miterlimit:4;stroke-dasharray:none;stroke-opacity:1" id="rect3990-21-8-1-7-3-7-1-7-2-6" width="37.620148" height="116.85934" x="-380.67319" y="433.23288" transform="matrix(0.73824792,0.67452947,0,1,0,0)"/>
      <rect style="fill:#000000;fill-opacity:0;fill-rule:evenodd;stroke:#c0c0c0;stroke-width:0.75;stroke-linejoin:round;stroke-miterlimit:4;stroke-dasharray:none;stroke-opacity:1" id="rect3970-3-5-8-1-6-6-9-2-6-7-4" width="71.870331" height="116.92113" x="-253.29369" y="201.99049"/>
      <path style="fill:none;stroke:#787878;stroke-width:1.73457289;stroke-linecap:butt;stroke-linejoin:miter;stroke-miterlimit:4;stroke-dasharray:none;stroke-opacity:1" d="m -253.50791,318.57262 27.49707,25.13667" id="path4782-0"/>
      <rect style="fill:#000000;fill-opacity:0;fill-rule:evenodd;stroke:#787878;stroke-width:1.75;stroke-linejoin:round;stroke-miterlimit:4;stroke-dasharray:none;stroke-opacity:1" id="rect3970-3-5-8-1-6-6-9-0-3-6" width="71.870331" height="116.92113" x="-325.04611" y="201.99049"/>
      <path style="fill:none;stroke:#c0c0c0;stroke-width:0.75;stroke-linecap:butt;stroke-linejoin:miter;stroke-miterlimit:4;stroke-dasharray:none;stroke-opacity:1" d="m -280.69768,176.73483 -44.11047,25.1549 27.65845,25.15489 72.00738,0.11922 43.99126,-25.27411 -27.77768,-25.27411 z" id="path4494-5-4-8"/>
      <path id="path3611-42-3-4-8" style="fill:#c0c0c0;fill-opacity:1;fill-rule:evenodd;stroke:none;stroke-width:0.75;marker-start:none;marker-end:none" d="m -282.72088,179.74194 c -1.63194,-1.03411 -2.11714,-3.19786 -1.08303,-4.82981 1.03411,-1.63194 3.19786,-2.11714 4.82982,-1.08303 1.63194,1.03411 2.11714,3.19787 1.08303,4.82981 -1.03411,1.63194 -3.19788,2.11714 -4.82982,1.08303 z"/>
      <path id="path6883-1-1-7-4" style="fill:#c0c0c0;fill-opacity:1;fill-rule:evenodd;stroke:none;stroke-width:0.75;marker-start:none;marker-end:none" d="m -278.18473,291.34467 c 1.22237,1.49614 1.00016,3.70247 -0.49599,4.92483 -1.49614,1.22236 -3.70248,1.00016 -4.92484,-0.49599 -1.22236,-1.49615 -1.00016,-3.70247 0.49599,-4.92483 1.49615,-1.22236 3.70248,-1.00016 4.92484,0.49599 z"/>
      <rect style="fill:#000000;fill-opacity:0;fill-rule:evenodd;stroke:#c0c0c0;stroke-width:0.87289125;stroke-linejoin:round;stroke-miterlimit:4;stroke-dasharray:none;stroke-opacity:1" id="rect3990-21-8-1-7-3-7-1-7-7-1-1" width="37.620148" height="116.85934" x="-283.25192" y="367.51947" transform="matrix(0.73824792,0.67452947,0,1,0,0)"/>
      <path id="path3611-42-3-5-7-4" style="fill:#c0c0c0;fill-opacity:1;fill-rule:evenodd;stroke:none;stroke-width:0.75;marker-start:none;marker-end:none" d="m -210.96842,179.74194 c -1.63194,-1.03411 -2.11714,-3.19786 -1.08303,-4.82981 1.03411,-1.63194 3.19786,-2.11714 4.82982,-1.08303 1.63194,1.03411 2.11714,3.19787 1.08303,4.82981 -1.03411,1.63194 -3.19788,2.11714 -4.82982,1.08303 z"/>
      <path id="path6883-1-1-8-7-3" style="fill:#c0c0c0;fill-opacity:1;fill-rule:evenodd;stroke:none;stroke-width:0.75;marker-start:none;marker-end:none" d="m -206.43227,291.34467 c 1.22237,1.49614 1.00016,3.70247 -0.49599,4.92483 -1.49614,1.22236 -3.70248,1.00016 -4.92484,-0.49599 -1.22236,-1.49615 -1.00016,-3.70247 0.49599,-4.92483 1.49615,-1.22236 3.70248,-1.00016 4.92484,0.49599 z"/>
      <path id="path3611-27-3-0-1-8" style="fill:#000000;fill-opacity:1;fill-rule:evenodd;stroke:none;stroke-width:0.75;marker-start:none;marker-end:none" d="m -326.80076,205.0651 c -1.63194,-1.03411 -2.11715,-3.19786 -1.08303,-4.82981 1.03411,-1.63194 3.19786,-2.11714 4.82981,-1.08303 1.63194,1.03411 2.11714,3.19787 1.08303,4.82981 -1.03411,1.63194 -3.19787,2.11714 -4.82981,1.08303 z"/>
      <path id="path3611-1-2-0-2-8" style="fill:#000000;fill-opacity:1;fill-rule:evenodd;stroke:none;stroke-width:0.75;marker-start:none;marker-end:none" d="m -227.42754,346.75514 c -1.63195,-1.03411 -2.11715,-3.19786 -1.08304,-4.82981 1.03412,-1.63194 3.19787,-2.11714 4.82982,-1.08303 1.63194,1.03411 2.11714,3.19787 1.08303,4.82981 -1.03411,1.63194 -3.19787,2.11714 -4.82981,1.08303 z"/>
      <path id="path3611-42-3-5-6-0-0" style="fill:#c0c0c0;fill-opacity:1;fill-rule:evenodd;stroke:none;stroke-width:0.75;marker-start:none;marker-end:none" d="m -183.27084,205.0651 c -1.63194,-1.03411 -2.11714,-3.19786 -1.08303,-4.82981 1.03411,-1.63194 3.19786,-2.11714 4.82982,-1.08303 1.63194,1.03411 2.11714,3.19787 1.08303,4.82981 -1.03411,1.63194 -3.19788,2.11714 -4.82982,1.08303 z"/>
      <path id="path6883-1-1-8-0-9-8" style="fill:#c0c0c0;fill-opacity:1;fill-rule:evenodd;stroke:none;stroke-width:0.75;marker-start:none;marker-end:none" d="m -178.73469,316.66784 c 1.22237,1.49614 1.00016,3.70247 -0.49599,4.92483 -1.49614,1.22236 -3.70248,1.00016 -4.92484,-0.49599 -1.22236,-1.49615 -1.00016,-3.70247 0.49599,-4.92483 1.49615,-1.22236 3.70248,-1.00016 4.92484,0.49599 z"/>
      <path style="fill:none;stroke:#c0c0c0;stroke-width:0.75;stroke-linecap:butt;stroke-linejoin:miter;stroke-miterlimit:4;stroke-dasharray:none;stroke-opacity:1" d="m -296.95648,226.90155 87.36709,-49.9328" id="path4676-7"/>
      <rect style="fill:#000000;fill-opacity:0;fill-rule:evenodd;stroke:#000000;stroke-width:2.03674626;stroke-linejoin:round;stroke-miterlimit:4;stroke-dasharray:none;stroke-opacity:1" id="rect3990-21-8-1-7-3-7-1-7-4-5-1-8" width="37.620148" height="116.85934" x="-440.17975" y="498.69592" transform="matrix(0.73824792,0.67452947,0,1,0,0)"/>
      <path id="path3611-2-4-1-0-8" style="fill:#000000;fill-opacity:1;fill-rule:evenodd;stroke:none;stroke-width:0.75;marker-start:none;marker-end:none" d="m -299.13107,346.75514 c -1.63194,-1.03411 -2.11714,-3.19786 -1.08303,-4.82981 1.03411,-1.63194 3.19786,-2.11714 4.82981,-1.08303 1.63194,1.03411 2.11714,3.19787 1.08303,4.82981 -1.03411,1.63194 -3.19787,2.11714 -4.82981,1.08303 z"/>
      <path id="path3611-6-1-9-8-3" style="fill:#000000;fill-opacity:1;fill-rule:evenodd;stroke:none;stroke-width:0.75;marker-start:none;marker-end:none" d="m -299.08342,229.98156 c -1.63194,-1.03411 -2.11714,-3.19786 -1.08303,-4.82981 1.03411,-1.63194 3.19786,-2.11714 4.82981,-1.08303 1.63194,1.03411 2.11714,3.19787 1.08303,4.82981 -1.03411,1.63194 -3.19787,2.11714 -4.82981,1.08303 z"/>
      <path style="fill:none;stroke:#000000;stroke-width:1.75;stroke-linecap:butt;stroke-linejoin:miter;stroke-miterlimit:4;stroke-dasharray:none;stroke-opacity:1" d="m -325.16842,202.00471 71.87031,0 27.7837,25.16613" id="path4381-2-6-0-7"/>
      <path style="fill:none;stroke:#787878;stroke-width:1.75;stroke-linecap:butt;stroke-linejoin:miter;stroke-miterlimit:4;stroke-dasharray:none;stroke-opacity:1" d="m -325.03836,318.54925 98.92857,-91.25 0.17857,0.17857" id="path3036-1-8"/>
      <path d="m -281.58458,205.81869 c -0.68228,0.82294 -1.68105,2.17692 -2.99633,4.06192 -1.3153,1.88502 -2.54267,3.75597 -3.68211,5.61286 -0.23212,1.46298 -0.52753,2.84158 -0.88624,4.13578 l -1.57202,0 -0.30597,-0.49588 c 0.28135,-1.10429 0.78425,-2.3211 1.50872,-3.65046 0.0633,-1.32936 0.0949,-2.68685 0.0949,-4.07248 0,-1.17461 -0.0246,-2.08546 -0.0738,-2.73257 -0.0492,-0.64709 -0.12133,-1.13416 -0.21628,-1.46124 -0.095,-0.32705 -0.2075,-0.55213 -0.33762,-0.67523 -0.13012,-0.12308 -0.29014,-0.18462 -0.48004,-0.18463 -0.39389,1e-5 -0.84756,0.28487 -1.36101,0.85459 l -0.59083,-0.59083 c 0.33762,-0.30244 0.59962,-0.53103 0.78601,-0.68578 0.18639,-0.15473 0.37982,-0.29188 0.58028,-0.41147 0.20045,-0.11956 0.40795,-0.21275 0.62247,-0.27958 0.21453,-0.0668 0.45543,-0.10022 0.72271,-0.10023 0.68929,1e-5 1.1922,0.26377 1.50872,0.79128 0.3165,0.52753 0.47476,1.39619 0.47477,2.60597 -10e-6,1.4208 -0.0668,2.96116 -0.20046,4.6211 l 0.095,0 c 1.70917,-2.86972 3.12293,-5.48623 4.24129,-7.84954 l 2.20504,0 -0.13715,0.50642 z" style="font-style:normal;font-weight:normal;font-size:21.6072998px;font-family:'Bitstream Vera Sans';fill:#008000;fill-opacity:1;stroke:none" id="text3663"/>
      <path d="m -304.11597,219.59398 c 8.74424,-1.87897 16.13724,0.20366 16.05546,6.68904" style="fill:none;stroke:#008000;stroke-width:0.90500176px;stroke-linecap:butt;stroke-linejoin:miter;stroke-opacity:1" id="path3679"/>
      <rect style="fill:#000000;fill-opacity:0;fill-rule:evenodd;stroke:#000000;stroke-width:1.75;stroke-linejoin:round;stroke-miterlimit:4;stroke-dasharray:none;stroke-opacity:1" id="rect3970-1-2-7-9-2-4-9-9-8-9-1" width="71.870331" height="116.92113" x="-297.26242" y="227.09467"/>
      <path id="path6883-1-1-3-3-0" style="fill:#787878;fill-opacity:1;fill-rule:evenodd;stroke:none;stroke-width:0.75;marker-start:none;marker-end:none" d="m -250.48714,316.66784 c 1.22237,1.49614 1.00016,3.70247 -0.49599,4.92483 -1.49614,1.22236 -3.70248,1.00016 -4.92484,-0.49599 -1.22236,-1.49615 -1.00016,-3.70247 0.49599,-4.92483 1.49615,-1.22236 3.70248,-1.00016 4.92484,0.49599 z"/>
      <path id="path3611-42-3-0-6-7" style="fill:#000000;fill-opacity:1;fill-rule:evenodd;stroke:none;stroke-width:0.75;marker-start:none;marker-end:none" d="m -255.02329,205.0651 c -1.63194,-1.03411 -2.11714,-3.19786 -1.08303,-4.82981 1.03411,-1.63194 3.19786,-2.11714 4.82982,-1.08303 1.63194,1.03411 2.11714,3.19787 1.08303,4.82981 -1.03411,1.63194 -3.19788,2.11714 -4.82982,1.08303 z"/>
      <path id="path3611-3-3-6-6-3" style="fill:#000000;fill-opacity:1;fill-rule:evenodd;stroke:none;stroke-width:0.75;marker-start:none;marker-end:none" d="m -326.84841,321.83868 c -1.63194,-1.03411 -2.11715,-3.19786 -1.08303,-4.82981 1.03411,-1.63194 3.19786,-2.11714 4.82981,-1.08303 1.63193,1.03411 2.11713,3.19787 1.08302,4.82981 -1.0341,1.63194 -3.19786,2.11714 -4.8298,1.08303 z"/>
      <path id="path3611-5-4-5-8-9" style="fill:#000000;fill-opacity:1;fill-rule:evenodd;stroke:none;stroke-width:0.75;marker-start:none;marker-end:none" d="m -227.37988,229.98156 c -1.63195,-1.03411 -2.11715,-3.19786 -1.08303,-4.82981 1.03411,-1.63194 3.19786,-2.11714 4.82981,-1.08303 1.63194,1.03411 2.11714,3.19787 1.08303,4.82981 -1.03411,1.63194 -3.19787,2.11714 -4.82981,1.08303 z"/>
      <path id="path3611-2-4-1-0-8-0" style="fill:#c0c0c0;fill-opacity:1;fill-rule:evenodd;stroke:none;stroke-width:0.75;marker-start:none;marker-end:none" d="m -288.21405,235.40276 c -1.63194,-1.03411 -2.11714,-3.19786 -1.08303,-4.82981 1.03411,-1.63194 3.19786,-2.11714 4.82981,-1.08303 1.63194,1.03411 2.11714,3.19787 1.08303,4.82981 -1.03411,1.63194 -3.19787,2.11714 -4.82981,1.08303 z"/>
      <path id="path3611-2-4-1-0-8-4-8" style="fill:#787878;fill-opacity:1;fill-rule:evenodd;stroke:none;stroke-width:0.75;marker-start:none;marker-end:none" d="m -293.74406,290.69455 c -1.63194,-1.03411 -2.11714,-3.19786 -1.08303,-4.82981 1.03411,-1.63194 3.19786,-2.11714 4.82981,-1.08303 1.63194,1.03411 2.11714,3.19787 1.08303,4.82981 -1.03411,1.63194 -3.19787,2.11714 -4.82981,1.08303 z"/>
      <path id="path3611-2-4-1-0-8-0-2" style="fill:#787878;fill-opacity:1;fill-rule:evenodd;stroke:none;stroke-width:0.75;marker-start:none;marker-end:none" d="m -260.82631,260.48431 c -1.63194,-1.03411 -2.11714,-3.19786 -1.08303,-4.82981 1.03411,-1.63194 3.19786,-2.11714 4.82981,-1.08303 1.63194,1.03411 2.11714,3.19787 1.08303,4.82981 -1.03411,1.63194 -3.19787,2.11714 -4.82981,1.08303 z"/>
      <path id="path3611-2-4-1-0-8-4-1" style="fill:#c0c0c0;fill-opacity:1;fill-rule:evenodd;stroke:none;stroke-width:0.75;marker-start:none;marker-end:none" d="m -221.77068,290.94709 c -1.63194,-1.03411 -2.11714,-3.19786 -1.08303,-4.82981 1.03411,-1.63194 3.19786,-2.11714 4.82981,-1.08303 1.63194,1.03411 2.11714,3.19787 1.08303,4.82981 -1.03411,1.63194 -3.19787,2.11714 -4.82981,1.08303 z"/>
      <path id="path3611-2-4-1-0-8-4-8-5" style="fill:#c0c0c0;fill-opacity:1;fill-rule:evenodd;stroke:none;stroke-width:0.75;marker-start:none;marker-end:none" d="m -249.57019,265.44074 c -1.63194,-1.03411 -2.11714,-3.19786 -1.08303,-4.82981 1.03411,-1.63194 3.19786,-2.11714 4.82981,-1.08303 1.63194,1.03411 2.11714,3.19787 1.08303,4.82981 -1.03411,1.63194 -3.19787,2.11714 -4.82981,1.08303 z"/>
      <path id="path3611-2-4-1-0-8-0-2-2" style="fill:#c0c0c0;fill-opacity:1;fill-rule:evenodd;stroke:none;stroke-width:0.75;marker-start:none;marker-end:none" d="m -216.65244,235.2305 c -1.63194,-1.03411 -2.11714,-3.19786 -1.08303,-4.82981 1.03411,-1.63194 3.19786,-2.11714 4.82981,-1.08303 1.63194,1.03411 2.11714,3.19787 1.08303,4.82981 -1.03411,1.63194 -3.19787,2.11714 -4.82981,1.08303 z"/>
      <path style="font-style:normal;font-weight:normal;font-size:16.6307106px;font-family:'Bitstream Vera Sans';fill:#000000;fill-opacity:1;stroke:none" d="m -328.84111,262.68462 c -0.0139,-0.5276 -0.0574,-0.90943 -0.13017,-1.14547 -0.0729,-0.23602 -0.19093,-0.41305 -0.35405,-0.53109 -0.16316,-0.11798 -0.39399,-0.17701 -0.6925,-0.17703 -0.70119,2e-5 -1.33119,0.27945 -1.89005,0.83829 -0.55886,0.55885 -1.01532,1.35029 -1.36937,2.37429 -0.35406,1.02398 -0.53109,2.00804 -0.53109,2.95221 0,0.70811 0.13885,1.23398 0.41654,1.57763 0.27769,0.34364 0.69423,0.51547 1.24962,0.51547 0.63174,0 1.17845,-0.11979 1.64011,-0.35928 0.46167,-0.23949 0.94935,-0.61611 1.46309,-1.12985 l 0.63523,0.63521 c -0.65259,0.72201 -1.31036,1.24963 -1.97335,1.58286 -0.663,0.33323 -1.37631,0.49986 -2.13997,0.49986 -1.00664,0 -1.77028,-0.29854 -2.29095,-0.89557 -0.52067,-0.59704 -0.78102,-1.46483 -0.78101,-2.60337 -1e-5,-0.74283 0.13885,-1.55854 0.41653,-2.44716 0.27769,-0.8886 0.68382,-1.66963 1.21838,-2.34304 0.53455,-0.67339 1.15937,-1.17671 1.87442,-1.50994 0.71505,-0.33323 1.47871,-0.49985 2.29096,-0.49985 0.92331,0 1.77376,0.10419 2.55129,0.3124 l -0.51025,2.35343 -1.09341,0 z" id="text6159-1-0"/>
      <path d="m -257.97298,347.04865 0.97064,-0.69633 0.67523,0.16882 -1.55092,6.68898 c -0.15475,0.66821 -0.23212,1.18868 -0.23211,1.56147 -10e-6,0.28134 0.0457,0.48532 0.13716,0.61192 0.0914,0.12662 0.23561,0.18991 0.43256,0.18991 0.211,0 0.43608,-0.0862 0.67523,-0.25849 0.23914,-0.17232 0.57675,-0.50114 1.01285,-0.98646 l 0.60137,0.59082 c -0.63303,0.67523 -1.17287,1.15528 -1.61949,1.44014 -0.44665,0.28486 -0.93021,0.42729 -1.45069,0.42729 -0.43609,0 -0.78426,-0.14419 -1.04449,-0.43257 -0.26026,-0.28837 -0.39038,-0.67171 -0.39037,-1.14999 -10e-6,-0.38685 0.0809,-0.79832 0.24266,-1.2344 l -0.13716,-0.0422 c -0.67523,0.98471 -1.31529,1.70566 -1.92018,2.16284 -0.6049,0.45719 -1.24496,0.68578 -1.92018,0.68578 -0.77371,0 -1.37332,-0.29189 -1.79886,-0.87569 -0.42553,-0.58379 -0.6383,-1.4032 -0.6383,-2.45825 0,-1.20978 0.23738,-2.37209 0.71216,-3.48693 0.47476,-1.11482 1.12713,-1.99403 1.95711,-2.63761 0.82996,-0.64357 1.75488,-0.96536 2.77477,-0.96537 0.45718,1e-5 0.88447,0.051 1.28188,0.15298 0.39739,0.102 0.8071,0.28311 1.22913,0.54335 l 0,0 z m -0.92844,3.14405 c 0.0633,-0.28839 0.10549,-0.53808 0.1266,-0.7491 0.0211,-0.211 0.0316,-0.43959 0.0317,-0.68578 -1e-5,-0.54158 -0.11606,-0.93898 -0.34816,-1.1922 -0.23212,-0.2532 -0.626,-0.37981 -1.18165,-0.37981 -0.72448,0 -1.37509,0.2919 -1.95184,0.87568 -0.57676,0.5838 -1.02691,1.36629 -1.35046,2.34748 -0.32355,0.9812 -0.48532,1.96063 -0.48532,2.9383 0,0.7315 0.10023,1.27837 0.30069,1.6406 0.20045,0.36223 0.53631,0.54335 1.00757,0.54335 0.46421,0 0.91964,-0.20046 1.36628,-0.60138 0.44663,-0.40091 0.90734,-0.9724 1.38211,-1.71445 0.47477,-0.74204 0.81062,-1.59839 1.00757,-2.56903 l 0.095,-0.45367 z" style="font-style:normal;font-weight:normal;font-size:21.6072998px;font-family:'Bitstream Vera Sans';fill:#000000;fill-opacity:1;stroke:none" id="text3671"/>
      <path d="m -314.75798,332.94165 0.97064,-0.69633 0.67523,0.16881 -1.55092,6.68899 c -0.15475,0.6682 -0.23212,1.18868 -0.23211,1.56147 -10e-6,0.28134 0.0457,0.48532 0.13716,0.61192 0.0914,0.12661 0.23561,0.18991 0.43256,0.18991 0.211,0 0.43608,-0.0862 0.67523,-0.25849 0.23914,-0.17232 0.57675,-0.50114 1.01285,-0.98646 l 0.60137,0.59082 c -0.63303,0.67523 -1.17287,1.15528 -1.61949,1.44014 -0.44665,0.28486 -0.93021,0.42729 -1.45069,0.42729 -0.43609,0 -0.78426,-0.14419 -1.04449,-0.43257 -0.26026,-0.28837 -0.39038,-0.67171 -0.39037,-1.15 -10e-6,-0.38684 0.0809,-0.79831 0.24266,-1.2344 l -0.13716,-0.0422 c -0.67523,0.98471 -1.31529,1.70566 -1.92018,2.16284 -0.6049,0.45719 -1.24496,0.68578 -1.92018,0.68578 -0.77371,0 -1.37332,-0.29189 -1.79886,-0.87569 -0.42553,-0.58379 -0.6383,-1.4032 -0.6383,-2.45825 0,-1.20979 0.23738,-2.3721 0.71216,-3.48693 0.47476,-1.11482 1.12713,-1.99403 1.95711,-2.63761 0.82996,-0.64357 1.75488,-0.96536 2.77477,-0.96537 0.45718,1e-5 0.88447,0.051 1.28188,0.15298 0.39739,0.102 0.8071,0.28311 1.22913,0.54335 l 0,0 z m -0.92844,3.14404 c 0.0633,-0.28838 0.10549,-0.53807 0.1266,-0.74909 0.0211,-0.211 0.0316,-0.43959 0.0317,-0.68578 -10e-6,-0.54158 -0.11606,-0.93898 -0.34816,-1.1922 -0.23212,-0.2532 -0.626,-0.37981 -1.18165,-0.37981 -0.72448,0 -1.37509,0.2919 -1.95184,0.87568 -0.57676,0.5838 -1.02691,1.36629 -1.35046,2.34748 -0.32355,0.9812 -0.48532,1.96063 -0.48532,2.9383 0,0.7315 0.10023,1.27837 0.30069,1.6406 0.20045,0.36223 0.53631,0.54335 1.00757,0.54335 0.46421,0 0.91964,-0.20046 1.36628,-0.60138 0.44663,-0.40091 0.90734,-0.9724 1.38211,-1.71445 0.47477,-0.74204 0.81062,-1.59839 1.00757,-2.56903 l 0.095,-0.45367 z" style="font-style:normal;font-weight:normal;font-size:21.6072998px;font-family:'Bitstream Vera Sans';fill:#000000;fill-opacity:1;stroke:none" id="text3671-3"/>
    </g>
    <g transform="translate(-178.74289,-56.480663)" id="g3978">
      <g transform="translate(-166.95033,183.95265)" id="g3071">
        <path d="m 44.744808,32.195188 c -0.68227,0.82295 -1.68105,2.17692 -2.99633,4.06193 -1.3153,1.88502 -2.54267,3.75596 -3.68211,5.61284 -0.23212,1.463 -0.52753,2.84159 -0.88624,4.13578 l -1.57202,0 -0.30596,-0.49587 c 0.28134,-1.10428 0.78425,-2.3211 1.50871,-3.65046 0.0633,-1.32935 0.09495,-2.68685 0.09496,-4.07247 -10e-6,-1.17462 -0.02462,-2.08547 -0.07386,-2.73257 -0.04923,-0.64709 -0.12133,-1.13417 -0.21628,-1.46124 -0.09496,-0.32706 -0.20749,-0.55213 -0.33761,-0.67523 -0.13013,-0.12308 -0.29014,-0.18463 -0.48005,-0.18463 -0.39389,0 -0.84755,0.28487 -1.36101,0.85458 l -0.59082,-0.59082 c 0.33761,-0.30244 0.59961,-0.53103 0.786,-0.68578 0.18639,-0.15473 0.37982,-0.29189 0.58028,-0.41147 0.20046,-0.11956 0.40795,-0.21276 0.62248,-0.27959 0.21452,-0.06681 0.45542,-0.10022 0.7227,-0.10023 0.6893,10e-6 1.1922,0.26377 1.50872,0.79129 0.31651,0.52753 0.47476,1.39618 0.47477,2.60596 -10e-6,1.4208 -0.06683,2.96117 -0.20046,4.6211 l 0.09495,0 c 1.70917,-2.86972 3.12293,-5.48623 4.24129,-7.84954 l 2.20505,0 z m 55.933932,1.31881 c -0.61192,10e-6 -1.15175,-0.13715 -1.61948,-0.41147 -0.46774,-0.2743 -0.82822,-0.65236 -1.08142,-1.13417 -0.25322,-0.4818 -0.37982,-1.02515 -0.37982,-1.63005 0,-0.59785 0.1354,-1.13768 0.40619,-1.61949 0.2708,-0.4818 0.64884,-0.85458 1.13418,-1.11835 0.48532,-0.26375 1.03394,-0.39563 1.64587,-0.39565 0.60489,2e-5 1.14472,0.13366 1.61948,0.40092 0.47477,0.26729 0.84403,0.64008 1.1078,1.11835 0.26376,0.4783 0.39564,1.01989 0.39564,1.62477 0,0.59787 -0.13892,1.1377 -0.41674,1.6195 -0.27783,0.48181 -0.66293,0.85987 -1.15527,1.13417 -0.49235,0.27432 -1.04449,0.41148 -1.65643,0.41147 z m 0.0633,-5.26468 c -0.39389,10e-6 -0.74556,0.08969 -1.05504,0.26904 -0.30948,0.17937 -0.54864,0.4273 -0.71743,0.7438 -0.16881,0.31653 -0.25321,0.67876 -0.25321,1.0867 0,0.40796 0.0826,0.77195 0.24793,1.09197 0.16529,0.32004 0.40444,0.56974 0.71744,0.74909 0.31299,0.17936 0.66643,0.26904 1.06032,0.26903 0.40091,1e-5 0.75787,-0.08967 1.07087,-0.26903 0.31298,-0.17935 0.55388,-0.42905 0.72269,-0.74909 0.16881,-0.32002 0.25321,-0.68401 0.25322,-1.09197 -1e-5,-0.40794 -0.0844,-0.77017 -0.25322,-1.0867 -0.16881,-0.3165 -0.40971,-0.56443 -0.72269,-0.7438 -0.313,-0.17935 -0.66996,-0.26903 -1.07088,-0.26904 z" style="font-style:normal;font-weight:normal;font-size:21.60733986px;font-family:'Bitstream Vera Sans';fill:#000000;fill-opacity:1;stroke:none" id="path3648"/>
        <path id="path3616" d="m 49.287466,36.990665 12.99816,0 0,1.40322 -12.99816,0 z" style="font-style:normal;font-weight:normal;font-size:21.60733986px;font-family:'Bitstream Vera Sans';fill:#000000;fill-opacity:1;stroke:none"/>
        <path id="path3614" d="m 62.285626,34.015445 -12.99816,0 0,-1.403219 12.99816,0 z" style="font-style:normal;font-weight:normal;font-size:21.60733986px;font-family:'Bitstream Vera Sans';fill:#000000;fill-opacity:1;stroke:none"/>
      </g>
      <text xml:space="preserve" style="font-style:normal;font-variant:normal;font-weight:normal;font-stretch:normal;font-size:20px;line-height:50%;font-family:Sans;-inkscape-font-specification:Sans;text-align:start;letter-spacing:0px;word-spacing:0px;writing-mode:lr-tb;text-anchor:start;fill:#000000;fill-opacity:1;stroke:none" x="-92.270523" y="225.20526" id="text6447"><tspan id="tspan6552" x="-92.270523" y="225.20526">2</tspan></text>
      <text xml:space="preserve" style="font-style:normal;font-variant:normal;font-weight:normal;font-stretch:normal;font-size:20px;line-height:50%;font-family:Sans;-inkscape-font-specification:Sans;text-align:start;letter-spacing:0px;word-spacing:0px;writing-mode:lr-tb;text-anchor:start;fill:#000000;fill-opacity:1;stroke:none" x="-101.68736" y="225.20526" id="text6447-2"><tspan id="tspan6550" x="-101.68736" y="225.20526">1</tspan></text>
      <text xml:space="preserve" style="font-style:normal;font-variant:normal;font-weight:normal;font-stretch:normal;font-size:20px;line-height:50%;font-family:Sans;-inkscape-font-specification:Sans;text-align:start;letter-spacing:0px;word-spacing:0px;writing-mode:lr-tb;text-anchor:start;fill:#000000;fill-opacity:1;stroke:none" x="-81.92305" y="225.20526" id="text6447-26"><tspan id="tspan6609" x="-81.92305" y="225.20526">0</tspan></text>
    </g>
  </g>
</svg>