<svg width="632.987" height="277.747" viewBox="0 0 474.74 208.31" class="displayed_equation" xmlns="http://www.w3.org/2000/svg" xmlns:xlink="http://www.w3.org/1999/xlink">
  <defs>
    <clipPath id="svg930139106286tikz_00009af">
      <path d="M 0.726563 0.476563 L 2.433594 0.476563 L 2.433594 2.289063 L 0.726563 2.289063 Z M 0.726563 0.476563" />
    </clipPath>
    <clipPath id="svg930139106286tikz_00009bk">
      <path d="M 58.347656 95.832031 L 67.894531 95.832031 L 67.894531 105.539063 L 58.347656 105.539063 Z M 58.347656 95.832031" />
    </clipPath>
    <clipPath id="svg930139106286tikz_00009b">
      <path d="M 0.347656 0.832031 L 9.894531 0.832031 L 9.894531 10.539063 L 0.347656 10.539063 Z M 0.347656 0.832031" />
    </clipPath>
    <clipPath id="svg930139106286tikz_00009a">
      <path d="M0 0H10V11H0z" />
    </clipPath>
    <clipPath id="svg930139106286tikz_00009bh">
      <path d="M0 0H8V6H0z" />
    </clipPath>
    <clipPath id="svg930139106286tikz_00009bj">
      <path d="M 0.519531 0.203125 L 7.15625 0.203125 L 7.15625 5.621094 L 0.519531 5.621094 Z M 0.519531 0.203125" />
    </clipPath>
    <clipPath id="svg930139106286tikz_00009f">
      <path d="M 0.347656 0.832031 L 9.894531 0.832031 L 9.894531 10.539063 L 0.347656 10.539063 Z M 0.347656 0.832031" />
    </clipPath>
    <clipPath id="svg930139106286tikz_00009e">
      <path d="M0 0H10V11H0z" />
    </clipPath>
    <clipPath id="svg930139106286tikz_00009bi">
      <path d="M 1 0.203125 L 7 0.203125 L 7 5.621094 L 1 5.621094 Z M 1 0.203125" />
    </clipPath>
    <clipPath id="svg930139106286tikz_00009bn">
      <path d="M 15.734375 59 L 104 59 L 104 152 L 15.734375 152 Z M 15.734375 59" />
    </clipPath>
    <clipPath id="svg930139106286tikz_00009bo">
      <path d="M 57.386719 76.476563 L 59.09375 76.476563 L 59.09375 78.289063 L 57.386719 78.289063 Z M 57.386719 76.476563" />
    </clipPath>
    <clipPath id="svg930139106286tikz_00009h">
      <path d="M 0.386719 0.476563 L 2.09375 0.476563 L 2.09375 2.289063 L 0.386719 2.289063 Z M 0.386719 0.476563" />
    </clipPath>
    <clipPath id="svg930139106286tikz_00009g">
      <path d="M0 0H3V3H0z" />
    </clipPath>
    <clipPath id="svg930139106286tikz_00009bf">
      <path d="M0 0H3V2H0z" />
    </clipPath>
    <clipPath id="svg930139106286tikz_00009bg">
      <path d="M 0.457031 0.0859375 L 2.164063 0.0859375 L 2.164063 1.898438 L 0.457031 1.898438 Z M 0.457031 0.0859375" />
    </clipPath>
    <clipPath id="svg930139106286tikz_00009k">
      <path d="M 0.386719 0.476563 L 2.09375 0.476563 L 2.09375 2.289063 L 0.386719 2.289063 Z M 0.386719 0.476563" />
    </clipPath>
    <clipPath id="svg930139106286tikz_00009j">
      <path d="M0 0H3V3H0z" />
    </clipPath>
    <clipPath id="svg930139106286tikz_00009bc">
      <path d="M0 0H3V2H0z" />
    </clipPath>
    <clipPath id="svg930139106286tikz_00009br">
      <path d="M 57.386719 65.167969 L 59.09375 65.167969 L 59.09375 66.929688 L 57.386719 66.929688 Z M 57.386719 65.167969" />
    </clipPath>
    <clipPath id="svg930139106286tikz_00009m">
      <path d="M 0.386719 0.167969 L 2.09375 0.167969 L 2.09375 1.929688 L 0.386719 1.929688 Z M 0.386719 0.167969" />
    </clipPath>
    <clipPath id="svg930139106286tikz_00009l">
      <path d="M0 0H3V2H0z" />
    </clipPath>
    <clipPath id="svg930139106286tikz_00009bd">
      <path d="M 0.457031 0.0859375 L 2.164063 0.0859375 L 2.164063 1.898438 L 0.457031 1.898438 Z M 0.457031 0.0859375" />
    </clipPath>
    <clipPath id="svg930139106286tikz_00009cB">
      <path d="M 408.457031 119.085938 L 410.164063 119.085938 L 410.164063 120.898438 L 408.457031 120.898438 Z M 408.457031 119.085938" />
    </clipPath>
    <clipPath id="svg930139106286tikz_00009p">
      <path d="M 0.386719 0.167969 L 2.09375 0.167969 L 2.09375 1.929688 L 0.386719 1.929688 Z M 0.386719 0.167969" />
    </clipPath>
    <clipPath id="svg930139106286tikz_00009o">
      <path d="M0 0H3V2H0z" />
    </clipPath>
    <clipPath id="svg930139106286tikz_00009ba">
      <path d="M0 0H3V3H0z" />
    </clipPath>
    <clipPath id="svg930139106286tikz_00009bu">
      <path d="M 57.386719 131.40625 L 59.09375 131.40625 L 59.09375 133.21875 L 57.386719 133.21875 Z M 57.386719 131.40625" />
    </clipPath>
    <clipPath id="svg930139106286tikz_00009r">
      <path d="M 0.386719 0.40625 L 2.09375 0.40625 L 2.09375 2.21875 L 0.386719 2.21875 Z M 0.386719 0.40625" />
    </clipPath>
    <clipPath id="svg930139106286tikz_00009q">
      <path d="M0 0H3V3H0z" />
    </clipPath>
    <clipPath id="svg930139106286tikz_00009bb">
      <path d="M 0.457031 0.433594 L 2.164063 0.433594 L 2.164063 2.246094 L 0.457031 2.246094 Z M 0.457031 0.433594" />
    </clipPath>
    <clipPath id="svg930139106286tikz_00009aX">
      <path d="M0 0H3V3H0z" />
    </clipPath>
    <clipPath id="svg930139106286tikz_00009u">
      <path d="M 0.386719 0.40625 L 2.09375 0.40625 L 2.09375 2.21875 L 0.386719 2.21875 Z M 0.386719 0.40625" />
    </clipPath>
    <clipPath id="svg930139106286tikz_00009t">
      <path d="M0 0H3V3H0z" />
    </clipPath>
    <clipPath id="svg930139106286tikz_00009aY">
      <path d="M 0.457031 0.433594 L 2.164063 0.433594 L 2.164063 2.246094 L 0.457031 2.246094 Z M 0.457031 0.433594" />
    </clipPath>
    <clipPath id="svg930139106286tikz_00009bx">
      <path d="M 57.386719 142.335938 L 59.09375 142.335938 L 59.09375 144.148438 L 57.386719 144.148438 Z M 57.386719 142.335938" />
    </clipPath>
    <clipPath id="svg930139106286tikz_00009w">
      <path d="M 0.386719 0.335938 L 2.09375 0.335938 L 2.09375 2.148438 L 0.386719 2.148438 Z M 0.386719 0.335938" />
    </clipPath>
    <clipPath id="svg930139106286tikz_00009v">
      <path d="M0 0H3V3H0z" />
    </clipPath>
    <clipPath id="svg930139106286tikz_00009cy">
      <path d="M 408.457031 89.433594 L 410.164063 89.433594 L 410.164063 91.246094 L 408.457031 91.246094 Z M 408.457031 89.433594" />
    </clipPath>
    <clipPath id="svg930139106286tikz_00009aV">
      <path d="M0 0H3V3H0z" />
    </clipPath>
    <clipPath id="svg930139106286tikz_00009z">
      <path d="M 0.386719 0.335938 L 2.09375 0.335938 L 2.09375 2.148438 L 0.386719 2.148438 Z M 0.386719 0.335938" />
    </clipPath>
    <clipPath id="svg930139106286tikz_00009y">
      <path d="M0 0H3V3H0z" />
    </clipPath>
    <clipPath id="svg930139106286tikz_00009aW">
      <path d="M 0.820313 0.765625 L 2.527344 0.765625 L 2.527344 2.578125 L 0.820313 2.578125 Z M 0.820313 0.765625" />
    </clipPath>
    <clipPath id="svg930139106286tikz_00009bA">
      <path d="M 95.570313 105.058594 L 97.277344 105.058594 L 97.277344 106.871094 L 95.570313 106.871094 Z M 95.570313 105.058594" />
    </clipPath>
    <clipPath id="svg930139106286tikz_00009B">
      <path d="M 0.570313 0.0585938 L 2.277344 0.0585938 L 2.277344 1.871094 L 0.570313 1.871094 Z M 0.570313 0.0585938" />
    </clipPath>
    <clipPath id="svg930139106286tikz_00009A">
      <path d="M0 0H3V2H0z" />
    </clipPath>
    <clipPath id="svg930139106286tikz_00009aS">
      <path d="M0 0H3V3H0z" />
    </clipPath>
    <clipPath id="svg930139106286tikz_00009aT">
      <path d="M 0.820313 0.765625 L 2.527344 0.765625 L 2.527344 2.578125 L 0.820313 2.578125 Z M 0.820313 0.765625" />
    </clipPath>
    <clipPath id="svg930139106286tikz_00009E">
      <path d="M 0.570313 0.0585938 L 2.277344 0.0585938 L 2.277344 1.871094 L 0.570313 1.871094 Z M 0.570313 0.0585938" />
    </clipPath>
    <clipPath id="svg930139106286tikz_00009D">
      <path d="M0 0H3V2H0z" />
    </clipPath>
    <clipPath id="svg930139106286tikz_00009cv">
      <path d="M 359.820313 138.765625 L 361.527344 138.765625 L 361.527344 140.578125 L 359.820313 140.578125 Z M 359.820313 138.765625" />
    </clipPath>
    <clipPath id="svg930139106286tikz_00009bD">
      <path d="M 15.734375 102 L 29 102 L 29 123 L 15.734375 123 Z M 15.734375 102" />
    </clipPath>
    <clipPath id="svg930139106286tikz_00009bE">
      <path d="M 18.777344 110.5 L 20.484375 110.5 L 20.484375 112.3125 L 18.777344 112.3125 Z M 18.777344 110.5" />
    </clipPath>
    <clipPath id="svg930139106286tikz_00009G">
      <path d="M 0.777344 0.5 L 2.480469 0.5 L 2.480469 2.3125 L 0.777344 2.3125 Z M 0.777344 0.5" />
    </clipPath>
    <clipPath id="svg930139106286tikz_00009F">
      <path d="M0 0H3V3H0z" />
    </clipPath>
    <clipPath id="svg930139106286tikz_00009aQ">
      <path d="M0 0H2V3H0z" />
    </clipPath>
    <clipPath id="svg930139106286tikz_00009aR">
      <path d="M 0.261719 0.765625 L 1.964844 0.765625 L 1.964844 2.578125 L 0.261719 2.578125 Z M 0.261719 0.765625" />
    </clipPath>
    <clipPath id="svg930139106286tikz_00009J">
      <path d="M 0.777344 0.5 L 2.480469 0.5 L 2.480469 2.3125 L 0.777344 2.3125 Z M 0.777344 0.5" />
    </clipPath>
    <clipPath id="svg930139106286tikz_00009I">
      <path d="M0 0H3V3H0z" />
    </clipPath>
    <clipPath id="svg930139106286tikz_00009aN">
      <path d="M0 0H2V3H0z" />
    </clipPath>
    <clipPath id="svg930139106286tikz_00009bH">
      <path d="M 15.734375 92 L 29 92 L 29 114 L 15.734375 114 Z M 15.734375 92" />
    </clipPath>
    <clipPath id="svg930139106286tikz_00009bI">
      <path d="M 18.777344 101.167969 L 20.484375 101.167969 L 20.484375 102.980469 L 18.777344 102.980469 Z M 18.777344 101.167969" />
    </clipPath>
    <clipPath id="svg930139106286tikz_00009L">
      <path d="M 0.777344 0.167969 L 2.480469 0.167969 L 2.480469 1.980469 L 0.777344 1.980469 Z M 0.777344 0.167969" />
    </clipPath>
    <clipPath id="svg930139106286tikz_00009K">
      <path d="M0 0H3V2H0z" />
    </clipPath>
    <clipPath id="svg930139106286tikz_00009aO">
      <path d="M 0.261719 0.765625 L 1.964844 0.765625 L 1.964844 2.578125 L 0.261719 2.578125 Z M 0.261719 0.765625" />
    </clipPath>
    <clipPath id="svg930139106286tikz_00009cs">
      <path d="M 385.257813 138.765625 L 386.964844 138.765625 L 386.964844 140.578125 L 385.257813 140.578125 Z M 385.257813 138.765625" />
    </clipPath>
    <clipPath id="svg930139106286tikz_00009O">
      <path d="M 0.777344 0.167969 L 2.480469 0.167969 L 2.480469 1.980469 L 0.777344 1.980469 Z M 0.777344 0.167969" />
    </clipPath>
    <clipPath id="svg930139106286tikz_00009N">
      <path d="M0 0H3V2H0z" />
    </clipPath>
    <clipPath id="svg930139106286tikz_00009cr">
      <path d="M 335 129 L 406 129 L 406 192.574219 L 335 192.574219 Z M 335 129" />
    </clipPath>
    <clipPath id="svg930139106286tikz_00009bL">
      <path d="M 374.058594 94.554688 L 383.660156 94.554688 L 383.660156 104.261719 L 374.058594 104.261719 Z M 374.058594 94.554688" />
    </clipPath>
    <clipPath id="svg930139106286tikz_00009Q">
      <path d="M 0.0585938 0.554688 L 9.660156 0.554688 L 9.660156 10.261719 L 0.0585938 10.261719 Z M 0.0585938 0.554688" />
    </clipPath>
    <clipPath id="svg930139106286tikz_00009P">
      <path d="M0 0H10V11H0z" />
    </clipPath>
    <clipPath id="svg930139106286tikz_00009aL">
      <path d="M0 0H3V3H0z" />
    </clipPath>
    <clipPath id="svg930139106286tikz_00009aM">
      <path d="M 0.820313 0.277344 L 2.527344 0.277344 L 2.527344 2.089844 L 0.820313 2.089844 Z M 0.820313 0.277344" />
    </clipPath>
    <clipPath id="svg930139106286tikz_00009T">
      <path d="M 0.0585938 0.554688 L 9.660156 0.554688 L 9.660156 10.261719 L 0.0585938 10.261719 Z M 0.0585938 0.554688" />
    </clipPath>
    <clipPath id="svg930139106286tikz_00009S">
      <path d="M0 0H10V11H0z" />
    </clipPath>
    <clipPath id="svg930139106286tikz_00009aI">
      <path d="M0 0H3V3H0z" />
    </clipPath>
    <clipPath id="svg930139106286tikz_00009bO">
      <path d="M 334.488281 109.164063 L 336.195313 109.164063 L 336.195313 110.980469 L 334.488281 110.980469 Z M 334.488281 109.164063" />
    </clipPath>
    <clipPath id="svg930139106286tikz_00009V">
      <path d="M 0.488281 0.164063 L 2.195313 0.164063 L 2.195313 1.980469 L 0.488281 1.980469 Z M 0.488281 0.164063" />
    </clipPath>
    <clipPath id="svg930139106286tikz_00009U">
      <path d="M0 0H3V2H0z" />
    </clipPath>
    <clipPath id="svg930139106286tikz_00009aJ">
      <path d="M 0.820313 0.277344 L 2.527344 0.277344 L 2.527344 2.089844 L 0.820313 2.089844 Z M 0.820313 0.277344" />
    </clipPath>
    <clipPath id="svg930139106286tikz_00009co">
      <path d="M 359.820313 65.277344 L 361.527344 65.277344 L 361.527344 67.089844 L 359.820313 67.089844 Z M 359.820313 65.277344" />
    </clipPath>
    <clipPath id="svg930139106286tikz_00009Y">
      <path d="M 0.488281 0.164063 L 2.195313 0.164063 L 2.195313 1.980469 L 0.488281 1.980469 Z M 0.488281 0.164063" />
    </clipPath>
    <clipPath id="svg930139106286tikz_00009X">
      <path d="M0 0H3V2H0z" />
    </clipPath>
    <clipPath id="svg930139106286tikz_00009aG">
      <path d="M0 0H2V2H0z" />
    </clipPath>
    <clipPath id="svg930139106286tikz_00009bR">
      <path d="M 334.488281 99.832031 L 336.195313 99.832031 L 336.195313 101.644531 L 334.488281 101.644531 Z M 334.488281 99.832031" />
    </clipPath>
    <clipPath id="svg930139106286tikz_00009aa">
      <path d="M 0.488281 0.832031 L 2.195313 0.832031 L 2.195313 2.644531 L 0.488281 2.644531 Z M 0.488281 0.832031" />
    </clipPath>
    <clipPath id="svg930139106286tikz_00009Z">
      <path d="M0 0H3V3H0z" />
    </clipPath>
    <clipPath id="svg930139106286tikz_00009aH">
      <path d="M 0.152344 0.125 L 1.859375 0.125 L 1.859375 1.882813 L 0.152344 1.882813 Z M 0.152344 0.125" />
    </clipPath>
    <clipPath id="svg930139106286tikz_00009aD">
      <path d="M0 0H2V2H0z" />
    </clipPath>
    <clipPath id="svg930139106286tikz_00009ad">
      <path d="M 0.488281 0.832031 L 2.195313 0.832031 L 2.195313 2.644531 L 0.488281 2.644531 Z M 0.488281 0.832031" />
    </clipPath>
    <clipPath id="svg930139106286tikz_00009ac">
      <path d="M0 0H3V3H0z" />
    </clipPath>
    <clipPath id="svg930139106286tikz_00009aE">
      <path d="M 0.152344 0.125 L 1.859375 0.125 L 1.859375 1.882813 L 0.152344 1.882813 Z M 0.152344 0.125" />
    </clipPath>
    <clipPath id="svg930139106286tikz_00009bU">
      <path d="M 139.726563 76.476563 L 141.433594 76.476563 L 141.433594 78.289063 L 139.726563 78.289063 Z M 139.726563 76.476563" />
    </clipPath>
    <clipPath id="svg930139106286tikz_00009cl">
      <path d="M 373.152344 130.125 L 374.859375 130.125 L 374.859375 131.882813 L 373.152344 131.882813 Z M 373.152344 130.125" />
    </clipPath>
    <clipPath id="svg930139106286tikz_00009ae">
      <path d="M0 0H3V3H0z" />
    </clipPath>
    <clipPath id="svg930139106286tikz_00009aB">
      <path d="M0 0H2V2H0z" />
    </clipPath>
    <clipPath id="svg930139106286tikz_00009aC">
      <path d="M 0.152344 0.195313 L 1.859375 0.195313 L 1.859375 1.953125 L 0.152344 1.953125 Z M 0.152344 0.195313" />
    </clipPath>
    <clipPath id="svg930139106286tikz_00009ai">
      <path d="M 0.726563 0.476563 L 2.433594 0.476563 L 2.433594 2.289063 L 0.726563 2.289063 Z M 0.726563 0.476563" />
    </clipPath>
    <clipPath id="svg930139106286tikz_00009ah">
      <path d="M0 0H3V3H0z" />
    </clipPath>
    <clipPath id="svg930139106286tikz_00009ay">
      <path d="M0 0H2V2H0z" />
    </clipPath>
    <clipPath id="svg930139106286tikz_00009bX">
      <path d="M 203.671875 76.476563 L 205.378906 76.476563 L 205.378906 78.289063 L 203.671875 78.289063 Z M 203.671875 76.476563" />
    </clipPath>
    <clipPath id="svg930139106286tikz_00009ak">
      <path d="M 0.671875 0.476563 L 2.378906 0.476563 L 2.378906 2.289063 L 0.671875 2.289063 Z M 0.671875 0.476563" />
    </clipPath>
    <clipPath id="svg930139106286tikz_00009aj">
      <path d="M0 0H3V3H0z" />
    </clipPath>
    <clipPath id="svg930139106286tikz_00009az">
      <path d="M 0.152344 0.195313 L 1.859375 0.195313 L 1.859375 1.953125 L 0.152344 1.953125 Z M 0.152344 0.195313" />
    </clipPath>
    <clipPath id="svg930139106286tikz_00009ci">
      <path d="M 373.152344 75.195313 L 374.859375 75.195313 L 374.859375 76.953125 L 373.152344 76.953125 Z M 373.152344 75.195313" />
    </clipPath>
    <clipPath id="svg930139106286tikz_00009an">
      <path d="M 0.671875 0.476563 L 2.378906 0.476563 L 2.378906 2.289063 L 0.671875 2.289063 Z M 0.671875 0.476563" />
    </clipPath>
    <clipPath id="svg930139106286tikz_00009am">
      <path d="M0 0H3V3H0z" />
    </clipPath>
    <clipPath id="svg930139106286tikz_00009aw">
      <path d="M0 0H2V3H0z" />
    </clipPath>
    <clipPath id="svg930139106286tikz_00009ca">
      <path d="M 269.105469 76.476563 L 270.8125 76.476563 L 270.8125 78.289063 L 269.105469 78.289063 Z M 269.105469 76.476563" />
    </clipPath>
    <clipPath id="svg930139106286tikz_00009ap">
      <path d="M 0.105469 0.476563 L 1.8125 0.476563 L 1.8125 2.289063 L 0.105469 2.289063 Z M 0.105469 0.476563" />
    </clipPath>
    <clipPath id="svg930139106286tikz_00009ao">
      <path d="M0 0H2V3H0z" />
    </clipPath>
    <clipPath id="svg930139106286tikz_00009ax">
      <path d="M 0.261719 0.277344 L 1.964844 0.277344 L 1.964844 2.089844 L 0.261719 2.089844 Z M 0.261719 0.277344" />
    </clipPath>
    <clipPath id="svg930139106286tikz_00009at">
      <path d="M0 0H2V3H0z" />
    </clipPath>
    <clipPath id="svg930139106286tikz_00009as">
      <path d="M 0.105469 0.476563 L 1.8125 0.476563 L 1.8125 2.289063 L 0.105469 2.289063 Z M 0.105469 0.476563" />
    </clipPath>
    <clipPath id="svg930139106286tikz_00009ar">
      <path d="M0 0H2V3H0z" />
    </clipPath>
    <clipPath id="svg930139106286tikz_00009au">
      <path d="M 0.261719 0.277344 L 1.964844 0.277344 L 1.964844 2.089844 L 0.261719 2.089844 Z M 0.261719 0.277344" />
    </clipPath>
    <clipPath id="svg930139106286tikz_00009cd">
      <path d="M 335 15.730469 L 406 15.730469 L 406 79 L 335 79 Z M 335 15.730469" />
    </clipPath>
    <clipPath id="svg930139106286tikz_00009ce">
      <path d="M 396 71 L 459.015625 71 L 459.015625 142 L 396 142 Z M 396 71" />
    </clipPath>
    <clipPath id="svg930139106286tikz_00009cf">
      <path d="M 385.257813 65.277344 L 386.964844 65.277344 L 386.964844 67.089844 L 385.257813 67.089844 Z M 385.257813 65.277344" />
    </clipPath>
    <g clip-path="url(#svg930139106286tikz_00009I)">
      <g clip-path="url(#svg930139106286tikz_00009J)" id="svg930139106286tikz_00009bF">
        <path d="M 2.28125 2.003906 C 2.125 2.195313 1.867188 2.292969 1.625 2.269531 C 1.378906 2.25 1.148438 2.109375 0.996094 1.921875 C 0.617188 1.46875 0.753906 0.484375 1.484375 0.519531 C 2.125 0.550781 2.722656 1.441406 2.28125 2.003906 Z M 2.28125 2.003906" fill="#fff" />
      </g>
    </g>
    <g clip-path="url(#svg930139106286tikz_00009ar)">
      <g clip-path="url(#svg930139106286tikz_00009as)" id="svg930139106286tikz_00009cb">
        <path d="M 1.621094 1.984375 C 1.46875 2.175781 1.210938 2.273438 0.964844 2.25 C 0.71875 2.230469 0.492188 2.089844 0.335938 1.902344 C -0.0429688 1.449219 0.0976563 0.464844 0.828125 0.5 C 1.46875 0.539063 2.0625 1.429688 1.621094 1.984375 Z M 1.621094 1.984375" fill="#fff" />
      </g>
    </g>
    <g clip-path="url(#svg930139106286tikz_00009at)">
      <g clip-path="url(#svg930139106286tikz_00009au)" id="svg930139106286tikz_00009av">
        <path d="M 0.257813 2.089844 L 1.964844 2.089844 L 1.964844 0.277344 L 0.257813 0.277344 Z M 0.257813 2.089844" fill-opacity=".502" />
      </g>
    </g>
    <g clip-path="url(#svg930139106286tikz_00009a)">
      <g clip-path="url(#svg930139106286tikz_00009b)" id="svg930139106286tikz_00009d">
        <path d="M 0.347656 10.539063 L 9.894531 10.539063 L 9.894531 0.832031 L 0.347656 0.832031 Z M 0.347656 10.539063" fill-opacity=".502" />
      </g>
    </g>
    <g clip-path="url(#svg930139106286tikz_00009ao)">
      <g clip-path="url(#svg930139106286tikz_00009ap)" id="svg930139106286tikz_00009aq">
        <path d="M 0.105469 2.289063 L 1.8125 2.289063 L 1.8125 0.476563 L 0.105469 0.476563 Z M 0.105469 2.289063" fill-opacity=".502" />
      </g>
    </g>
    <g clip-path="url(#svg930139106286tikz_00009am)">
      <g clip-path="url(#svg930139106286tikz_00009an)" id="svg930139106286tikz_00009bY">
        <path d="M 2.210938 1.984375 C 2.058594 2.175781 1.800781 2.273438 1.554688 2.25 C 1.3125 2.230469 1.082031 2.089844 0.925781 1.902344 C 0.546875 1.449219 0.6875 0.464844 1.417969 0.5 C 2.058594 0.539063 2.65625 1.429688 2.210938 1.984375 Z M 2.210938 1.984375" fill="#fff" />
      </g>
    </g>
    <g clip-path="url(#svg930139106286tikz_00009aw)">
      <g clip-path="url(#svg930139106286tikz_00009ax)" id="svg930139106286tikz_00009cg">
        <path d="M 1.796875 1.8125 C 1.640625 2.003906 1.386719 2.097656 1.140625 2.078125 C 0.894531 2.054688 0.664063 1.917969 0.511719 1.730469 C 0.132813 1.277344 0.269531 0.289063 1 0.328125 C 1.640625 0.367188 2.238281 1.257813 1.796875 1.8125 Z M 1.796875 1.8125" fill="#fff" />
      </g>
    </g>
    <g clip-path="url(#svg930139106286tikz_00009e)">
      <g clip-path="url(#svg930139106286tikz_00009f)" id="svg930139106286tikz_00009bl">
        <path d="M 8.984375 9.03125 C 8.09375 10.085938 6.601563 10.617188 5.183594 10.492188 C 3.765625 10.367188 2.441406 9.628906 1.53125 8.582031 C -0.652344 6.085938 0.144531 0.671875 4.355469 0.882813 C 8.09375 1.074219 11.554688 5.96875 8.984375 9.03125 Z M 8.984375 9.03125" fill="#fff" />
      </g>
    </g>
    <g clip-path="url(#svg930139106286tikz_00009aj)">
      <g clip-path="url(#svg930139106286tikz_00009ak)" id="svg930139106286tikz_00009al">
        <path d="M 0.671875 2.289063 L 2.378906 2.289063 L 2.378906 0.476563 L 0.671875 0.476563 Z M 0.671875 2.289063" fill-opacity=".502" />
      </g>
    </g>
    <g clip-path="url(#svg930139106286tikz_00009ah)">
      <g clip-path="url(#svg930139106286tikz_00009ai)" id="svg930139106286tikz_00009bV">
        <path d="M 2.226563 1.984375 C 2.070313 2.175781 1.816406 2.273438 1.570313 2.25 C 1.324219 2.230469 1.097656 2.089844 0.941406 1.902344 C 0.5625 1.449219 0.703125 0.464844 1.433594 0.5 C 2.070313 0.539063 2.675781 1.429688 2.226563 1.984375 Z M 2.226563 1.984375" fill="#fff" />
      </g>
    </g>
    <g clip-path="url(#svg930139106286tikz_00009ay)">
      <g clip-path="url(#svg930139106286tikz_00009az)" id="svg930139106286tikz_00009aA">
        <path d="M 0.152344 1.953125 L 1.859375 1.953125 L 1.859375 0.195313 L 0.152344 0.195313 Z M 0.152344 1.953125" fill-opacity=".502" />
      </g>
    </g>
    <g clip-path="url(#svg930139106286tikz_00009bf)">
      <g clip-path="url(#svg930139106286tikz_00009bg)" id="svg930139106286tikz_00009cC">
        <path d="M 1.992188 1.578125 C 1.839844 1.769531 1.585938 1.867188 1.339844 1.84375 C 1.09375 1.824219 0.863281 1.683594 0.710938 1.5 C 0.328125 1.046875 0.46875 0.0585938 1.199219 0.0976563 C 1.839844 0.128906 2.4375 1.019531 1.992188 1.578125 Z M 1.992188 1.578125" fill="#fff" />
      </g>
    </g>
    <g clip-path="url(#svg930139106286tikz_00009g)">
      <g clip-path="url(#svg930139106286tikz_00009h)" id="svg930139106286tikz_00009i">
        <path d="M 0.386719 2.289063 L 2.09375 2.289063 L 2.09375 0.476563 L 0.386719 0.476563 Z M 0.386719 2.289063" fill-opacity=".502" />
      </g>
    </g>
    <g clip-path="url(#svg930139106286tikz_00009ae)">
      <g clip-path="url(#svg930139106286tikz_00009af)" id="svg930139106286tikz_00009ag">
        <path d="M 0.726563 2.289063 L 2.433594 2.289063 L 2.433594 0.476563 L 0.726563 0.476563 Z M 0.726563 2.289063" fill-opacity=".502" />
      </g>
    </g>
    <g clip-path="url(#svg930139106286tikz_00009aB)">
      <g clip-path="url(#svg930139106286tikz_00009aC)" id="svg930139106286tikz_00009cj">
        <path d="M 1.667969 1.683594 C 1.515625 1.875 1.257813 1.972656 1.011719 1.949219 C 0.765625 1.929688 0.539063 1.789063 0.382813 1.601563 C 0.00390625 1.148438 0.144531 0.164063 0.871094 0.199219 C 1.515625 0.238281 2.109375 1.128906 1.667969 1.683594 Z M 1.667969 1.683594" fill="#fff" />
      </g>
    </g>
    <g clip-path="url(#svg930139106286tikz_00009bc)">
      <g clip-path="url(#svg930139106286tikz_00009bd)" id="svg930139106286tikz_00009be">
        <path d="M 0.457031 1.898438 L 2.164063 1.898438 L 2.164063 0.0859375 L 0.457031 0.0859375 Z M 0.457031 1.898438" fill-opacity=".502" />
      </g>
    </g>
    <g clip-path="url(#svg930139106286tikz_00009ac)">
      <g clip-path="url(#svg930139106286tikz_00009ad)" id="svg930139106286tikz_00009bS">
        <path d="M 2.023438 2.363281 C 1.871094 2.554688 1.613281 2.652344 1.371094 2.628906 C 1.125 2.609375 0.894531 2.46875 0.738281 2.285156 C 0.359375 1.828125 0.5 0.84375 1.230469 0.882813 C 1.875 0.917969 2.472656 1.808594 2.023438 2.363281 Z M 2.023438 2.363281" fill="#fff" />
      </g>
    </g>
    <g clip-path="url(#svg930139106286tikz_00009j)">
      <g clip-path="url(#svg930139106286tikz_00009k)" id="svg930139106286tikz_00009bp">
        <path d="M 1.910156 1.984375 C 1.757813 2.175781 1.5 2.273438 1.257813 2.25 C 1.011719 2.230469 0.78125 2.089844 0.625 1.902344 C 0.246094 1.449219 0.386719 0.464844 1.117188 0.5 C 1.761719 0.539063 2.359375 1.429688 1.910156 1.984375 Z M 1.910156 1.984375" fill="#fff" />
      </g>
    </g>
    <g clip-path="url(#svg930139106286tikz_00009aD)">
      <g clip-path="url(#svg930139106286tikz_00009aE)" id="svg930139106286tikz_00009aF">
        <path d="M 0.152344 1.882813 L 1.859375 1.882813 L 1.859375 0.125 L 0.152344 0.125 Z M 0.152344 1.882813" fill-opacity=".502" />
      </g>
    </g>
    <g clip-path="url(#svg930139106286tikz_00009l)">
      <g clip-path="url(#svg930139106286tikz_00009m)" id="svg930139106286tikz_00009n">
        <path d="M 0.386719 1.929688 L 2.09375 1.929688 L 2.09375 0.167969 L 0.386719 0.167969 Z M 0.386719 1.929688" fill-opacity=".502" />
      </g>
    </g>
    <g clip-path="url(#svg930139106286tikz_00009Z)">
      <g clip-path="url(#svg930139106286tikz_00009aa)" id="svg930139106286tikz_00009ab">
        <path d="M 0.488281 2.644531 L 2.195313 2.644531 L 2.195313 0.832031 L 0.488281 0.832031 Z M 0.488281 2.644531" fill-opacity=".502" />
      </g>
    </g>
    <g clip-path="url(#svg930139106286tikz_00009X)">
      <g clip-path="url(#svg930139106286tikz_00009Y)" id="svg930139106286tikz_00009bP">
        <path d="M 2.023438 1.703125 C 1.871094 1.894531 1.613281 1.988281 1.371094 1.96875 C 1.125 1.945313 0.894531 1.808594 0.738281 1.621094 C 0.359375 1.167969 0.5 0.183594 1.230469 0.21875 C 1.875 0.25 2.472656 1.148438 2.023438 1.703125 Z M 2.023438 1.703125" fill="#fff" />
      </g>
    </g>
    <g clip-path="url(#svg930139106286tikz_00009aG)">
      <g clip-path="url(#svg930139106286tikz_00009aH)" id="svg930139106286tikz_00009cm">
        <path d="M 1.667969 1.613281 C 1.515625 1.804688 1.257813 1.902344 1.011719 1.878906 C 0.765625 1.859375 0.539063 1.71875 0.382813 1.53125 C 0.00390625 1.078125 0.144531 0.09375 0.871094 0.128906 C 1.515625 0.167969 2.109375 1.058594 1.667969 1.613281 Z M 1.667969 1.613281" fill="#fff" />
      </g>
    </g>
    <g clip-path="url(#svg930139106286tikz_00009ba)">
      <g clip-path="url(#svg930139106286tikz_00009bb)" id="svg930139106286tikz_00009cz">
        <path d="M 1.992188 1.96875 C 1.839844 2.160156 1.585938 2.257813 1.339844 2.238281 C 1.09375 2.214844 0.863281 2.074219 0.710938 1.890625 C 0.328125 1.4375 0.46875 0.449219 1.199219 0.488281 C 1.839844 0.519531 2.4375 1.414063 1.992188 1.96875 Z M 1.992188 1.96875" fill="#fff" />
      </g>
    </g>
    <g clip-path="url(#svg930139106286tikz_00009U)">
      <g clip-path="url(#svg930139106286tikz_00009V)" id="svg930139106286tikz_00009W">
        <path d="M 0.488281 1.980469 L 2.195313 1.980469 L 2.195313 0.164063 L 0.488281 0.164063 Z M 0.488281 1.980469" fill-opacity=".502" />
      </g>
    </g>
    <g clip-path="url(#svg930139106286tikz_00009S)">
      <g clip-path="url(#svg930139106286tikz_00009T)" id="svg930139106286tikz_00009bM">
        <path d="M 8.730469 8.730469 C 7.847656 9.785156 6.347656 10.316406 4.929688 10.195313 C 3.511719 10.074219 2.1875 9.332031 1.277344 8.285156 C -0.90625 5.789063 -0.109375 0.378906 4.101563 0.585938 C 7.847656 0.773438 11.308594 5.667969 8.730469 8.730469 Z M 8.730469 8.730469" fill="#fff" />
      </g>
    </g>
    <g clip-path="url(#svg930139106286tikz_00009aI)">
      <g clip-path="url(#svg930139106286tikz_00009aJ)" id="svg930139106286tikz_00009aK">
        <path d="M 0.820313 2.089844 L 2.527344 2.089844 L 2.527344 0.277344 L 0.820313 0.277344 Z M 0.820313 2.089844" fill-opacity=".502" />
      </g>
    </g>
    <g clip-path="url(#svg930139106286tikz_00009o)">
      <g clip-path="url(#svg930139106286tikz_00009p)" id="svg930139106286tikz_00009bs">
        <path d="M 1.910156 1.65625 C 1.757813 1.847656 1.5 1.945313 1.257813 1.921875 C 1.011719 1.902344 0.78125 1.761719 0.625 1.574219 C 0.246094 1.121094 0.386719 0.136719 1.117188 0.175781 C 1.761719 0.210938 2.359375 1.101563 1.910156 1.65625 Z M 1.910156 1.65625" fill="#fff" />
      </g>
    </g>
    <g clip-path="url(#svg930139106286tikz_00009q)">
      <g clip-path="url(#svg930139106286tikz_00009r)" id="svg930139106286tikz_00009s">
        <path d="M 0.386719 2.21875 L 2.09375 2.21875 L 2.09375 0.40625 L 0.386719 0.40625 Z M 0.386719 2.21875" fill-opacity=".502" />
      </g>
    </g>
    <g clip-path="url(#svg930139106286tikz_00009P)">
      <g clip-path="url(#svg930139106286tikz_00009Q)" id="svg930139106286tikz_00009R">
        <path d="M 0.0585938 10.261719 L 9.660156 10.261719 L 9.660156 0.554688 L 0.0585938 0.554688 Z M 0.0585938 10.261719" fill-opacity=".502" />
      </g>
    </g>
    <g clip-path="url(#svg930139106286tikz_00009aL)">
      <g clip-path="url(#svg930139106286tikz_00009aM)" id="svg930139106286tikz_00009cp">
        <path d="M 2.335938 1.8125 C 2.179688 2.003906 1.925781 2.097656 1.679688 2.078125 C 1.433594 2.054688 1.203125 1.917969 1.050781 1.730469 C 0.671875 1.277344 0.8125 0.289063 1.539063 0.328125 C 2.179688 0.367188 2.777344 1.257813 2.335938 1.8125 Z M 2.335938 1.8125" fill="#fff" />
      </g>
    </g>
    <g clip-path="url(#svg930139106286tikz_00009N)">
      <g clip-path="url(#svg930139106286tikz_00009O)" id="svg930139106286tikz_00009bJ">
        <path d="M 2.28125 1.664063 C 2.125 1.855469 1.867188 1.953125 1.625 1.933594 C 1.378906 1.910156 1.148438 1.773438 0.996094 1.585938 C 0.617188 1.132813 0.753906 0.144531 1.484375 0.183594 C 2.125 0.214844 2.722656 1.105469 2.28125 1.664063 Z M 2.28125 1.664063" fill="#fff" />
      </g>
    </g>
    <g clip-path="url(#svg930139106286tikz_00009aX)">
      <g clip-path="url(#svg930139106286tikz_00009aY)" id="svg930139106286tikz_00009aZ">
        <path d="M 0.457031 2.246094 L 2.164063 2.246094 L 2.164063 0.433594 L 0.457031 0.433594 Z M 0.457031 2.246094" fill-opacity=".502" />
      </g>
    </g>
    <g clip-path="url(#svg930139106286tikz_00009K)">
      <g clip-path="url(#svg930139106286tikz_00009L)" id="svg930139106286tikz_00009M">
        <path d="M 0.777344 1.980469 L 2.484375 1.980469 L 2.484375 0.167969 L 0.777344 0.167969 Z M 0.777344 1.980469" fill-opacity=".502" />
      </g>
    </g>
    <g clip-path="url(#svg930139106286tikz_00009t)">
      <g clip-path="url(#svg930139106286tikz_00009u)" id="svg930139106286tikz_00009bv">
        <path d="M 1.910156 1.914063 C 1.757813 2.105469 1.5 2.203125 1.257813 2.179688 C 1.011719 2.160156 0.78125 2.019531 0.625 1.832031 C 0.246094 1.378906 0.386719 0.394531 1.117188 0.429688 C 1.761719 0.46875 2.359375 1.359375 1.910156 1.914063 Z M 1.910156 1.914063" fill="#fff" />
      </g>
    </g>
    <g clip-path="url(#svg930139106286tikz_00009aN)">
      <g clip-path="url(#svg930139106286tikz_00009aO)" id="svg930139106286tikz_00009aP">
        <path d="M 0.257813 2.578125 L 1.964844 2.578125 L 1.964844 0.765625 L 0.257813 0.765625 Z M 0.257813 2.578125" fill-opacity=".502" />
      </g>
    </g>
    <g clip-path="url(#svg930139106286tikz_00009v)">
      <g clip-path="url(#svg930139106286tikz_00009w)" id="svg930139106286tikz_00009x">
        <path d="M 0.386719 2.148438 L 2.09375 2.148438 L 2.09375 0.335938 L 0.386719 0.335938 Z M 0.386719 2.148438" fill-opacity=".502" />
      </g>
    </g>
    <g clip-path="url(#svg930139106286tikz_00009aV)">
      <g clip-path="url(#svg930139106286tikz_00009aW)" id="svg930139106286tikz_00009cw">
        <path d="M 2.335938 2.277344 C 2.179688 2.46875 1.925781 2.566406 1.679688 2.546875 C 1.433594 2.523438 1.203125 2.386719 1.050781 2.199219 C 0.671875 1.746094 0.8125 0.757813 1.539063 0.796875 C 2.179688 0.828125 2.777344 1.71875 2.335938 2.277344 Z M 2.335938 2.277344" fill="#fff" />
      </g>
    </g>
    <g clip-path="url(#svg930139106286tikz_00009F)">
      <g clip-path="url(#svg930139106286tikz_00009G)" id="svg930139106286tikz_00009H">
        <path d="M 0.777344 2.3125 L 2.484375 2.3125 L 2.484375 0.5 L 0.777344 0.5 Z M 0.777344 2.3125" fill-opacity=".502" />
      </g>
    </g>
    <g clip-path="url(#svg930139106286tikz_00009aQ)">
      <g clip-path="url(#svg930139106286tikz_00009aR)" id="svg930139106286tikz_00009ct">
        <path d="M 1.796875 2.277344 C 1.640625 2.46875 1.386719 2.566406 1.140625 2.546875 C 0.894531 2.523438 0.664063 2.386719 0.511719 2.199219 C 0.132813 1.746094 0.269531 0.757813 1 0.796875 C 1.640625 0.828125 2.238281 1.71875 1.796875 2.277344 Z M 1.796875 2.277344" fill="#fff" />
      </g>
    </g>
    <g clip-path="url(#svg930139106286tikz_00009D)">
      <g clip-path="url(#svg930139106286tikz_00009E)" id="svg930139106286tikz_00009bB">
        <path d="M 2.097656 1.597656 C 1.941406 1.785156 1.683594 1.882813 1.441406 1.863281 C 1.195313 1.839844 0.964844 1.703125 0.8125 1.515625 C 0.433594 1.0625 0.570313 0.0742188 1.300781 0.113281 C 1.945313 0.144531 2.542969 1.035156 2.097656 1.597656 Z M 2.097656 1.597656" fill="#fff" />
      </g>
    </g>
    <g clip-path="url(#svg930139106286tikz_00009y)">
      <g clip-path="url(#svg930139106286tikz_00009z)" id="svg930139106286tikz_00009by">
        <path d="M 1.910156 1.875 C 1.757813 2.066406 1.5 2.160156 1.257813 2.140625 C 1.011719 2.117188 0.78125 1.980469 0.625 1.792969 C 0.246094 1.339844 0.386719 0.351563 1.117188 0.390625 C 1.761719 0.421875 2.359375 1.3125 1.910156 1.875 Z M 1.910156 1.875" fill="#fff" />
      </g>
    </g>
    <g clip-path="url(#svg930139106286tikz_00009A)">
      <g clip-path="url(#svg930139106286tikz_00009B)" id="svg930139106286tikz_00009C">
        <path d="M 0.570313 1.871094 L 2.277344 1.871094 L 2.277344 0.0585938 L 0.570313 0.0585938 Z M 0.570313 1.871094" fill-opacity=".502" />
      </g>
    </g>
    <g clip-path="url(#svg930139106286tikz_00009aS)">
      <g clip-path="url(#svg930139106286tikz_00009aT)" id="svg930139106286tikz_00009aU">
        <path d="M 0.820313 2.578125 L 2.527344 2.578125 L 2.527344 0.765625 L 0.820313 0.765625 Z M 0.820313 2.578125" fill-opacity=".502" />
      </g>
    </g>
    <g id="svg930139106286tikz_00009cE" clip-path="url(#svg930139106286tikz_00009bh)">
      <g clip-path="url(#svg930139106286tikz_00009bi)">
        <path d="M 6.449219 2.910156 L 1.144531 5.082031 L 2.402344 2.910156 L 1.144531 0.746094 Z M 6.449219 2.910156" />
      </g>
      <g clip-path="url(#svg930139106286tikz_00009bj)">
        <path d="M 3274.492188 1013.998437 L 3221.445313 992.279687 L 3234.023438 1013.998437 L 3221.445313 1035.639062 Z M 3274.492188 1013.998437" transform="matrix(.1 0 0 -.1 -321 104.31)" fill="none" stroke-width="5.333" stroke="#000" stroke-miterlimit="10" />
      </g>
    </g>
    <mask id="svg930139106286tikz_00009cx">
      <g filter="url(#svg930139106286tikz_00009c)">
        <use xlink:href="#svg930139106286tikz_00009aU" />
      </g>
    </mask>
    <mask id="svg930139106286tikz_00009bz">
      <g filter="url(#svg930139106286tikz_00009c)">
        <use xlink:href="#svg930139106286tikz_00009x" />
      </g>
    </mask>
    <mask id="svg930139106286tikz_00009bG">
      <g filter="url(#svg930139106286tikz_00009c)">
        <use xlink:href="#svg930139106286tikz_00009H" />
      </g>
    </mask>
    <mask id="svg930139106286tikz_00009cu">
      <g filter="url(#svg930139106286tikz_00009c)">
        <use xlink:href="#svg930139106286tikz_00009aP" />
      </g>
    </mask>
    <mask id="svg930139106286tikz_00009cc">
      <g filter="url(#svg930139106286tikz_00009c)">
        <use xlink:href="#svg930139106286tikz_00009aq" />
      </g>
    </mask>
    <mask id="svg930139106286tikz_00009bw">
      <g filter="url(#svg930139106286tikz_00009c)">
        <use xlink:href="#svg930139106286tikz_00009s" />
      </g>
    </mask>
    <mask id="svg930139106286tikz_00009bK">
      <g filter="url(#svg930139106286tikz_00009c)">
        <use xlink:href="#svg930139106286tikz_00009M" />
      </g>
    </mask>
    <mask id="svg930139106286tikz_00009cA">
      <g filter="url(#svg930139106286tikz_00009c)">
        <use xlink:href="#svg930139106286tikz_00009aZ" />
      </g>
    </mask>
    <mask id="svg930139106286tikz_00009bN">
      <g filter="url(#svg930139106286tikz_00009c)">
        <use xlink:href="#svg930139106286tikz_00009R" />
      </g>
    </mask>
    <mask id="svg930139106286tikz_00009cq">
      <g filter="url(#svg930139106286tikz_00009c)">
        <use xlink:href="#svg930139106286tikz_00009aK" />
      </g>
    </mask>
    <mask id="svg930139106286tikz_00009bQ">
      <g filter="url(#svg930139106286tikz_00009c)">
        <use xlink:href="#svg930139106286tikz_00009W" />
      </g>
    </mask>
    <mask id="svg930139106286tikz_00009bC">
      <g filter="url(#svg930139106286tikz_00009c)">
        <use xlink:href="#svg930139106286tikz_00009C" />
      </g>
    </mask>
    <mask id="svg930139106286tikz_00009cn">
      <g filter="url(#svg930139106286tikz_00009c)">
        <use xlink:href="#svg930139106286tikz_00009aF" />
      </g>
    </mask>
    <mask id="svg930139106286tikz_00009bT">
      <g filter="url(#svg930139106286tikz_00009c)">
        <use xlink:href="#svg930139106286tikz_00009ab" />
      </g>
    </mask>
    <mask id="svg930139106286tikz_00009ch">
      <g filter="url(#svg930139106286tikz_00009c)">
        <use xlink:href="#svg930139106286tikz_00009av" />
      </g>
    </mask>
    <mask id="svg930139106286tikz_00009cD">
      <g filter="url(#svg930139106286tikz_00009c)">
        <use xlink:href="#svg930139106286tikz_00009be" />
      </g>
    </mask>
    <mask id="svg930139106286tikz_00009bq">
      <g filter="url(#svg930139106286tikz_00009c)">
        <use xlink:href="#svg930139106286tikz_00009i" />
      </g>
    </mask>
    <mask id="svg930139106286tikz_00009bW">
      <g filter="url(#svg930139106286tikz_00009c)">
        <use xlink:href="#svg930139106286tikz_00009ag" />
      </g>
    </mask>
    <mask id="svg930139106286tikz_00009ck">
      <g filter="url(#svg930139106286tikz_00009c)">
        <use xlink:href="#svg930139106286tikz_00009aA" />
      </g>
    </mask>
    <mask id="svg930139106286tikz_00009bZ">
      <g filter="url(#svg930139106286tikz_00009c)">
        <use xlink:href="#svg930139106286tikz_00009al" />
      </g>
    </mask>
    <mask id="svg930139106286tikz_00009bm">
      <g filter="url(#svg930139106286tikz_00009c)">
        <use xlink:href="#svg930139106286tikz_00009d" />
      </g>
    </mask>
    <mask id="svg930139106286tikz_00009bt">
      <g filter="url(#svg930139106286tikz_00009c)">
        <use xlink:href="#svg930139106286tikz_00009n" />
      </g>
    </mask>
    <filter id="svg930139106286tikz_00009c" filterUnits="objectBoundingBox" x="0%" y="0%" width="100%" height="100%">
      <feColorMatrix in="SourceGraphic" values="0 0 0 0 1 0 0 0 0 1 0 0 0 0 1 0 0 0 1 0" />
    </filter>
  </defs>
  <path d="M 72.179688 105.769531 C 72.179688 97.921875 65.484375 91.5625 57.226563 91.5625 C 48.96875 91.5625 42.273438 97.921875 42.273438 105.769531 C 42.273438 113.613281 48.96875 119.976563 57.226563 119.976563 C 65.484375 119.976563 72.179688 113.613281 72.179688 105.769531 Z M 72.179688 105.769531" fill="#5475e0" />
  <path d="M 57.226563 91.5625 C 65.480469 91.5625 72.179688 97.925781 72.179688 105.769531 C 72.179688 113.613281 65.480469 119.976563 57.226563 119.976563 C 48.972656 119.976563 42.273438 113.613281 42.273438 105.769531 C 42.277344 97.925781 48.972656 91.5625 57.226563 91.5625 Z M 71.507813 104.652344 C 71.507813 97.773438 65.640625 92.195313 58.398438 92.195313 C 51.15625 92.195313 45.292969 97.773438 45.292969 104.652344 C 45.292969 111.535156 51.15625 117.113281 58.398438 117.113281 C 65.640625 117.113281 71.507813 111.535156 71.507813 104.652344 Z M 71.507813 104.652344" fill="#5468dd" />
  <path d="M 71.507813 104.652344 C 71.507813 97.773438 65.640625 92.195313 58.398438 92.195313 C 51.160156 92.195313 45.292969 97.773438 45.292969 104.652344 C 45.292969 111.535156 51.160156 117.113281 58.398438 117.113281 C 65.640625 117.113281 71.507813 111.535156 71.507813 104.652344 Z M 71.507813 104.652344" fill="#5475e0" />
  <path d="M 71.507813 104.652344 C 71.507813 97.773438 65.640625 92.195313 58.398438 92.195313 C 51.160156 92.195313 45.292969 97.773438 45.292969 104.652344 C 45.292969 111.535156 51.160156 117.113281 58.398438 117.113281 C 65.640625 117.113281 71.507813 111.535156 71.507813 104.652344 Z M 71.507813 104.652344" fill="#5475e0" />
  <path d="M 721.796875 1025.404687 C 721.796875 1103.88125 654.84375 1167.475 572.265625 1167.475 C 489.6875 1167.475 422.734375 1103.88125 422.734375 1025.404687 C 422.734375 946.967187 489.6875 883.334375 572.265625 883.334375 C 654.84375 883.334375 721.796875 946.967187 721.796875 1025.404687 Z M 721.796875 1025.404687" transform="matrix(.1 0 0 -.1 0 208.31)" fill="none" stroke-width="5.333" stroke="#000" stroke-miterlimit="10" />
  <g clip-path="url(#svg930139106286tikz_00009bk)">
    <use xlink:href="#svg930139106286tikz_00009bl" transform="translate(58 95)" mask="url(#svg930139106286tikz_00009bm)" />
  </g>
  <g clip-path="url(#svg930139106286tikz_00009bn)" fill="none" stroke-width="5.333" stroke="#000" stroke-miterlimit="10">
    <path d="M 958.632813 1025.404687 C 958.632813 812.00625 785.664063 639.0375 572.265625 639.0375 C 358.867188 639.0375 185.898438 812.00625 185.898438 1025.404687 C 185.898438 1238.803125 358.867188 1411.771875 572.265625 1411.771875 C 785.664063 1411.771875 958.632813 1238.803125 958.632813 1025.404687 Z M 958.632813 1025.404687" transform="matrix(.1 0 0 -.1 0 208.31)" />
    <path d="M 958.632813 1025.404687 C 958.632813 812.00625 785.664063 639.0375 572.265625 639.0375 C 358.867188 639.0375 185.898438 812.00625 185.898438 1025.404687 C 185.898438 1238.803125 358.867188 1411.771875 572.265625 1411.771875 C 785.664063 1411.771875 958.632813 1238.803125 958.632813 1025.404687 Z M 958.632813 1025.404687" transform="matrix(.1 0 0 -.1 0 208.31)" />
  </g>
  <path d="M 846.914063 1025.404687 C 846.914063 873.725 723.945313 750.75625 572.265625 750.75625 C 420.585938 750.75625 297.617188 873.725 297.617188 1025.404687 C 297.617188 1177.084375 420.585938 1300.053125 572.265625 1300.053125 C 723.945313 1300.053125 846.914063 1177.084375 846.914063 1025.404687 Z M 846.914063 1025.404687" transform="matrix(.1 0 0 -.1 0 208.31)" fill="none" stroke-width="5.333" stroke="#000" stroke-miterlimit="10" />
  <path d="M 57.226563 75.71875 C 58.65625 75.71875 59.8125 76.875 59.8125 78.304688 C 59.8125 79.734375 58.65625 80.890625 57.226563 80.890625 C 55.796875 80.890625 54.640625 79.734375 54.640625 78.304688 C 54.640625 76.875 55.796875 75.71875 57.226563 75.71875 Z M 59.695313 78.101563 C 59.695313 76.847656 58.683594 75.835938 57.429688 75.835938 C 56.175781 75.835938 55.164063 76.847656 55.164063 78.101563 C 55.164063 79.355469 56.175781 80.367188 57.429688 80.367188 C 58.683594 80.367188 59.695313 79.355469 59.695313 78.101563 Z M 59.695313 78.101563" fill="#4d84ad" />
  <path d="M 59.695313 78.101563 C 59.695313 79.351563 58.679688 80.367188 57.429688 80.367188 C 56.175781 80.367188 55.164063 79.351563 55.164063 78.101563 C 55.164063 76.847656 56.175781 75.835938 57.429688 75.835938 C 58.679688 75.835938 59.695313 76.847656 59.695313 78.101563 Z M 59.695313 78.101563" fill="#64a6df" />
  <path d="M 598.125 1300.053125 C 598.125 1285.795312 586.5625 1274.19375 572.265625 1274.19375 C 557.96875 1274.19375 546.40625 1285.795312 546.40625 1300.053125 C 546.40625 1314.35 557.96875 1325.9125 572.265625 1325.9125 C 586.5625 1325.9125 598.125 1314.35 598.125 1300.053125 Z M 598.125 1300.053125" transform="matrix(.1 0 0 -.1 0 208.31)" fill="none" stroke-width="5.333" stroke="#000" stroke-miterlimit="10" />
  <g clip-path="url(#svg930139106286tikz_00009bo)">
    <use xlink:href="#svg930139106286tikz_00009bp" transform="translate(57 76)" mask="url(#svg930139106286tikz_00009bq)" />
  </g>
  <path d="M 57.226563 64.390625 C 58.65625 64.390625 59.8125 65.546875 59.8125 66.976563 C 59.8125 68.40625 58.65625 69.5625 57.226563 69.5625 C 55.796875 69.5625 54.640625 68.40625 54.640625 66.976563 C 54.640625 65.546875 55.796875 64.390625 57.226563 64.390625 Z M 59.695313 66.773438 C 59.695313 65.519531 58.683594 64.507813 57.429688 64.507813 C 56.175781 64.507813 55.164063 65.519531 55.164063 66.773438 C 55.164063 68.027344 56.175781 69.039063 57.429688 69.039063 C 58.683594 69.039063 59.695313 68.027344 59.695313 66.773438 Z M 59.695313 66.773438" fill="#4d84ad" />
  <path d="M 59.695313 66.773438 C 59.695313 68.027344 58.679688 69.039063 57.429688 69.039063 C 56.175781 69.039063 55.164063 68.027344 55.164063 66.773438 C 55.164063 65.523438 56.175781 64.507813 57.429688 64.507813 C 58.679688 64.507813 59.695313 65.523438 59.695313 66.773438 Z M 59.695313 66.773438" fill="#64a6df" />
  <path d="M 598.125 1413.334375 C 598.125 1399.0375 586.5625 1387.475 572.265625 1387.475 C 557.96875 1387.475 546.40625 1399.0375 546.40625 1413.334375 C 546.40625 1427.63125 557.96875 1439.19375 572.265625 1439.19375 C 586.5625 1439.19375 598.125 1427.63125 598.125 1413.334375 Z M 598.125 1413.334375" transform="matrix(.1 0 0 -.1 0 208.31)" fill="none" stroke-width="5.333" stroke="#000" stroke-miterlimit="10" />
  <g clip-path="url(#svg930139106286tikz_00009br)">
    <use xlink:href="#svg930139106286tikz_00009bs" transform="translate(57 65)" mask="url(#svg930139106286tikz_00009bt)" />
  </g>
  <path d="M 57.226563 130.648438 C 58.65625 130.648438 59.8125 131.804688 59.8125 133.234375 C 59.8125 134.664063 58.65625 135.820313 57.226563 135.820313 C 55.796875 135.820313 54.640625 134.664063 54.640625 133.234375 C 54.640625 131.804688 55.796875 130.648438 57.226563 130.648438 Z M 59.695313 133.03125 C 59.695313 131.777344 58.683594 130.765625 57.429688 130.765625 C 56.175781 130.765625 55.164063 131.777344 55.164063 133.03125 C 55.164063 134.285156 56.175781 135.296875 57.429688 135.296875 C 58.683594 135.296875 59.695313 134.285156 59.695313 133.03125 Z M 59.695313 133.03125" fill="#4d84ad" />
  <path d="M 59.695313 133.03125 C 59.695313 134.28125 58.679688 135.296875 57.429688 135.296875 C 56.175781 135.296875 55.164063 134.28125 55.164063 133.03125 C 55.164063 131.777344 56.175781 130.765625 57.429688 130.765625 C 58.679688 130.765625 59.695313 131.777344 59.695313 133.03125 Z M 59.695313 133.03125" fill="#64a6df" />
  <path d="M 598.125 750.75625 C 598.125 736.459375 586.5625 724.896875 572.265625 724.896875 C 557.96875 724.896875 546.40625 736.459375 546.40625 750.75625 C 546.40625 765.053125 557.96875 776.615625 572.265625 776.615625 C 586.5625 776.615625 598.125 765.053125 598.125 750.75625 Z M 598.125 750.75625" transform="matrix(.1 0 0 -.1 0 208.31)" fill="none" stroke-width="5.333" stroke="#000" stroke-miterlimit="10" />
  <g clip-path="url(#svg930139106286tikz_00009bu)">
    <use xlink:href="#svg930139106286tikz_00009bv" transform="translate(57 131)" mask="url(#svg930139106286tikz_00009bw)" />
  </g>
  <path d="M 57.226563 141.601563 C 58.65625 141.601563 59.8125 142.757813 59.8125 144.1875 C 59.8125 145.617188 58.65625 146.773438 57.226563 146.773438 C 55.796875 146.773438 54.640625 145.617188 54.640625 144.1875 C 54.640625 142.757813 55.796875 141.601563 57.226563 141.601563 Z M 59.695313 143.984375 C 59.695313 142.730469 58.683594 141.71875 57.429688 141.71875 C 56.175781 141.71875 55.164063 142.730469 55.164063 143.984375 C 55.164063 145.238281 56.175781 146.25 57.429688 146.25 C 58.683594 146.25 59.695313 145.238281 59.695313 143.984375 Z M 59.695313 143.984375" fill="#4d84ad" />
  <path d="M 59.695313 143.984375 C 59.695313 145.238281 58.679688 146.25 57.429688 146.25 C 56.175781 146.25 55.164063 145.238281 55.164063 143.984375 C 55.164063 142.734375 56.175781 141.71875 57.429688 141.71875 C 58.679688 141.71875 59.695313 142.734375 59.695313 143.984375 Z M 59.695313 143.984375" fill="#64a6df" />
  <path d="M 598.125 641.225 C 598.125 626.928125 586.5625 615.365625 572.265625 615.365625 C 557.96875 615.365625 546.40625 626.928125 546.40625 641.225 C 546.40625 655.521875 557.96875 667.084375 572.265625 667.084375 C 586.5625 667.084375 598.125 655.521875 598.125 641.225 Z M 598.125 641.225" transform="matrix(.1 0 0 -.1 0 208.31)" fill="none" stroke-width="5.333" stroke="#000" stroke-miterlimit="10" />
  <g clip-path="url(#svg930139106286tikz_00009bx)">
    <use xlink:href="#svg930139106286tikz_00009by" transform="translate(57 142)" mask="url(#svg930139106286tikz_00009bz)" />
  </g>
  <path d="M 95.410156 104.324219 C 96.839844 104.324219 97.996094 105.480469 97.996094 106.910156 C 97.996094 108.339844 96.839844 109.496094 95.410156 109.496094 C 93.980469 109.496094 92.824219 108.339844 92.824219 106.910156 C 92.824219 105.480469 93.980469 104.324219 95.410156 104.324219 Z M 97.878906 106.707031 C 97.878906 105.453125 96.867188 104.441406 95.613281 104.441406 C 94.359375 104.441406 93.347656 105.453125 93.347656 106.707031 C 93.347656 107.960938 94.359375 108.972656 95.613281 108.972656 C 96.867188 108.972656 97.878906 107.960938 97.878906 106.707031 Z M 97.878906 106.707031" fill="#4d84ad" />
  <path d="M 97.878906 106.707031 C 97.878906 107.960938 96.867188 108.972656 95.613281 108.972656 C 94.363281 108.972656 93.347656 107.960938 93.347656 106.707031 C 93.347656 105.457031 94.363281 104.441406 95.613281 104.441406 C 96.867188 104.441406 97.878906 105.457031 97.878906 106.707031 Z M 97.878906 106.707031" fill="#64a6df" />
  <path d="M 979.960938 1013.998437 C 979.960938 999.701562 968.398438 988.139062 954.101563 988.139062 C 939.804688 988.139062 928.242188 999.701562 928.242188 1013.998437 C 928.242188 1028.295312 939.804688 1039.857812 954.101563 1039.857812 C 968.398438 1039.857812 979.960938 1028.295312 979.960938 1013.998437 Z M 979.960938 1013.998437" transform="matrix(.1 0 0 -.1 0 208.31)" fill="none" stroke-width="5.333" stroke="#000" stroke-miterlimit="10" />
  <g clip-path="url(#svg930139106286tikz_00009bA)">
    <use xlink:href="#svg930139106286tikz_00009bB" transform="translate(95 105)" mask="url(#svg930139106286tikz_00009bC)" />
  </g>
  <path d="M 18.589844 109.730469 C 20.019531 109.730469 21.175781 110.886719 21.175781 112.316406 C 21.175781 113.746094 20.019531 114.902344 18.589844 114.902344 C 17.160156 114.902344 16.003906 113.746094 16.003906 112.316406 C 16.003906 110.886719 17.160156 109.730469 18.589844 109.730469 Z M 21.058594 112.113281 C 21.058594 110.863281 20.042969 109.847656 18.792969 109.847656 C 17.539063 109.847656 16.527344 110.863281 16.527344 112.113281 C 16.527344 113.367188 17.539063 114.382813 18.792969 114.382813 C 20.042969 114.382813 21.058594 113.367188 21.058594 112.113281 Z M 21.058594 112.113281" fill="#4d84ad" />
  <path d="M 21.058594 112.113281 C 21.058594 113.367188 20.042969 114.382813 18.792969 114.382813 C 17.539063 114.382813 16.527344 113.367188 16.527344 112.113281 C 16.527344 110.863281 17.539063 109.847656 18.792969 109.847656 C 20.042969 109.847656 21.058594 110.863281 21.058594 112.113281 Z M 21.058594 112.113281" fill="#64a6df" />
  <g clip-path="url(#svg930139106286tikz_00009bD)">
    <path d="M 211.757813 959.935937 C 211.757813 945.639062 200.195313 934.076562 185.898438 934.076562 C 171.601563 934.076562 160.039063 945.639062 160.039063 959.935937 C 160.039063 974.19375 171.601563 985.795312 185.898438 985.795312 C 200.195313 985.795312 211.757813 974.19375 211.757813 959.935937 Z M 211.757813 959.935937" transform="matrix(.1 0 0 -.1 0 208.31)" fill="none" stroke-width="5.333" stroke="#000" stroke-miterlimit="10" />
  </g>
  <g clip-path="url(#svg930139106286tikz_00009bE)">
    <use xlink:href="#svg930139106286tikz_00009bF" transform="translate(18 110)" mask="url(#svg930139106286tikz_00009bG)" />
  </g>
  <path d="M 18.589844 100.394531 C 20.019531 100.394531 21.175781 101.550781 21.175781 102.980469 C 21.175781 104.410156 20.019531 105.566406 18.589844 105.566406 C 17.160156 105.566406 16.003906 104.410156 16.003906 102.980469 C 16.003906 101.550781 17.160156 100.394531 18.589844 100.394531 Z M 21.058594 102.777344 C 21.058594 101.523438 20.042969 100.511719 18.792969 100.511719 C 17.539063 100.511719 16.527344 101.523438 16.527344 102.777344 C 16.527344 104.03125 17.539063 105.042969 18.792969 105.042969 C 20.042969 105.042969 21.058594 104.03125 21.058594 102.777344 Z M 21.058594 102.777344" fill="#4d84ad" />
  <path d="M 21.058594 102.777344 C 21.058594 104.027344 20.042969 105.042969 18.792969 105.042969 C 17.539063 105.042969 16.527344 104.027344 16.527344 102.777344 C 16.527344 101.523438 17.539063 100.511719 18.792969 100.511719 C 20.042969 100.511719 21.058594 101.523438 21.058594 102.777344 Z M 21.058594 102.777344" fill="#64a6df" />
  <g clip-path="url(#svg930139106286tikz_00009bH)">
    <path d="M 211.757813 1053.295312 C 211.757813 1039.0375 200.195313 1027.435937 185.898438 1027.435937 C 171.601563 1027.435937 160.039063 1039.0375 160.039063 1053.295312 C 160.039063 1067.592187 171.601563 1079.154687 185.898438 1079.154687 C 200.195313 1079.154687 211.757813 1067.592187 211.757813 1053.295312 Z M 211.757813 1053.295312" transform="matrix(.1 0 0 -.1 0 208.31)" fill="none" stroke-width="5.333" stroke="#000" stroke-miterlimit="10" />
  </g>
  <g clip-path="url(#svg930139106286tikz_00009bI)">
    <use xlink:href="#svg930139106286tikz_00009bJ" transform="translate(18 101)" mask="url(#svg930139106286tikz_00009bK)" />
  </g>
  <path d="M 387.925781 104.46875 C 387.925781 96.621094 381.234375 90.261719 372.976563 90.261719 C 364.722656 90.261719 358.027344 96.621094 358.027344 104.46875 C 358.027344 112.3125 364.722656 118.675781 372.976563 118.675781 C 381.234375 118.675781 387.925781 112.3125 387.925781 104.46875 Z M 387.925781 104.46875" fill="#5475e0" />
  <path d="M 372.976563 90.261719 C 381.234375 90.261719 387.933594 96.621094 387.933594 104.46875 C 387.933594 112.3125 381.234375 118.675781 372.976563 118.675781 C 364.722656 118.675781 358.027344 112.3125 358.027344 104.46875 C 358.027344 96.621094 364.722656 90.261719 372.976563 90.261719 Z M 387.257813 103.359375 C 387.257813 96.480469 381.394531 90.898438 374.152344 90.898438 C 366.910156 90.898438 361.035156 96.472656 361.035156 103.359375 C 361.035156 110.242188 366.902344 115.816406 374.152344 115.816406 C 381.386719 115.8125 387.257813 110.238281 387.257813 103.359375 Z M 387.257813 103.359375" fill="#5468dd" />
  <path d="M 387.257813 103.359375 C 387.257813 96.476563 381.390625 90.898438 374.152344 90.898438 C 366.910156 90.898438 361.042969 96.476563 361.042969 103.359375 C 361.042969 110.238281 366.910156 115.816406 374.152344 115.816406 C 381.390625 115.816406 387.257813 110.238281 387.257813 103.359375 Z M 387.257813 103.359375" fill="#5475e0" />
  <path d="M 387.257813 103.359375 C 387.257813 96.476563 381.390625 90.898438 374.152344 90.898438 C 366.910156 90.898438 361.042969 96.476563 361.042969 103.359375 C 361.042969 110.238281 366.910156 115.816406 374.152344 115.816406 C 381.390625 115.816406 387.257813 110.238281 387.257813 103.359375 Z M 387.257813 103.359375" fill="#5475e0" />
  <path d="M 3879.257813 1038.4125 C 3879.257813 1116.889062 3812.34375 1180.482812 3729.765625 1180.482812 C 3647.226563 1180.482812 3580.273438 1116.889062 3580.273438 1038.4125 C 3580.273438 959.975 3647.226563 896.342187 3729.765625 896.342187 C 3812.34375 896.342187 3879.257813 959.975 3879.257813 1038.4125 Z M 3879.257813 1038.4125" transform="matrix(.1 0 0 -.1 0 208.31)" fill="none" stroke-width="5.333" stroke="#000" stroke-miterlimit="10" />
  <g clip-path="url(#svg930139106286tikz_00009bL)">
    <use xlink:href="#svg930139106286tikz_00009bM" transform="translate(374 94)" mask="url(#svg930139106286tikz_00009bN)" />
  </g>
  <path d="M 4116.132813 1038.4125 C 4116.132813 825.053125 3943.164063 652.045312 3729.765625 652.045312 C 3516.40625 652.045312 3343.398438 825.053125 3343.398438 1038.4125 C 3343.398438 1251.810937 3516.40625 1424.81875 3729.765625 1424.81875 C 3943.164063 1424.81875 4116.132813 1251.810937 4116.132813 1038.4125 Z M 4116.132813 1038.4125" transform="matrix(.1 0 0 -.1 0 208.31)" fill="none" stroke-width="5.333" stroke="#000" stroke-miterlimit="10" />
  <path d="M 4116.132813 1038.4125 C 4116.132813 825.053125 3943.164063 652.045312 3729.765625 652.045312 C 3516.40625 652.045312 3343.398438 825.053125 3343.398438 1038.4125 C 3343.398438 1251.810937 3516.40625 1424.81875 3729.765625 1424.81875 C 3943.164063 1424.81875 4116.132813 1251.810937 4116.132813 1038.4125 Z M 4116.132813 1038.4125" transform="matrix(.1 0 0 -.1 0 208.31)" fill="none" stroke-width="5.333" stroke="#000" stroke-miterlimit="10" />
  <path d="M 4004.414063 1038.4125 C 4004.414063 886.732812 3881.445313 763.764062 3729.765625 763.764062 C 3578.085938 763.764062 3455.117188 886.732812 3455.117188 1038.4125 C 3455.117188 1190.092187 3578.085938 1313.060937 3729.765625 1313.060937 C 3881.445313 1313.060937 4004.414063 1190.092187 4004.414063 1038.4125 Z M 4004.414063 1038.4125" transform="matrix(.1 0 0 -.1 0 208.31)" fill="none" stroke-width="5.333" stroke="#000" stroke-miterlimit="10" />
  <path d="M 334.339844 108.429688 C 335.769531 108.429688 336.925781 109.585938 336.925781 111.015625 C 336.925781 112.445313 335.769531 113.601563 334.339844 113.601563 C 332.910156 113.601563 331.753906 112.445313 331.753906 111.015625 C 331.753906 109.585938 332.910156 108.429688 334.339844 108.429688 Z M 336.808594 110.8125 C 336.808594 109.558594 335.796875 108.546875 334.542969 108.546875 C 333.289063 108.546875 332.277344 109.558594 332.277344 110.8125 C 332.277344 112.066406 333.289063 113.082031 334.542969 113.082031 C 335.796875 113.085938 336.808594 112.066406 336.808594 110.8125 Z M 336.808594 110.8125" fill="#4d84ad" />
  <path d="M 336.808594 110.8125 C 336.808594 112.066406 335.796875 113.082031 334.542969 113.082031 C 333.289063 113.082031 332.277344 112.066406 332.277344 110.8125 C 332.277344 109.5625 333.289063 108.546875 334.542969 108.546875 C 335.796875 108.546875 336.808594 109.5625 336.808594 110.8125 Z M 336.808594 110.8125" fill="#64a6df" />
  <path d="M 3369.257813 972.94375 C 3369.257813 958.646875 3357.695313 947.084375 3343.398438 947.084375 C 3329.101563 947.084375 3317.539063 958.646875 3317.539063 972.94375 C 3317.539063 987.201562 3329.101563 998.803125 3343.398438 998.803125 C 3357.695313 998.803125 3369.257813 987.201562 3369.257813 972.94375 Z M 3369.257813 972.94375" transform="matrix(.1 0 0 -.1 0 208.31)" fill="none" stroke-width="5.333" stroke="#000" stroke-miterlimit="10" />
  <g clip-path="url(#svg930139106286tikz_00009bO)">
    <use xlink:href="#svg930139106286tikz_00009bP" transform="translate(334 109)" mask="url(#svg930139106286tikz_00009bQ)" />
  </g>
  <path d="M 334.339844 99.097656 C 335.769531 99.097656 336.925781 100.253906 336.925781 101.683594 C 336.925781 103.113281 335.769531 104.269531 334.339844 104.269531 C 332.910156 104.269531 331.753906 103.113281 331.753906 101.683594 C 331.753906 100.253906 332.910156 99.097656 334.339844 99.097656 Z M 336.808594 101.480469 C 336.808594 100.226563 335.796875 99.214844 334.542969 99.214844 C 333.289063 99.214844 332.277344 100.226563 332.277344 101.480469 C 332.277344 102.734375 333.289063 103.746094 334.542969 103.746094 C 335.796875 103.746094 336.808594 102.730469 336.808594 101.480469 Z M 336.808594 101.480469" fill="#4d84ad" />
  <path d="M 336.808594 101.480469 C 336.808594 102.734375 335.796875 103.746094 334.542969 103.746094 C 333.289063 103.746094 332.277344 102.734375 332.277344 101.480469 C 332.277344 100.230469 333.289063 99.214844 334.542969 99.214844 C 335.796875 99.214844 336.808594 100.230469 336.808594 101.480469 Z M 336.808594 101.480469" fill="#64a6df" />
  <path d="M 3369.257813 1066.264062 C 3369.257813 1051.967187 3357.695313 1040.404687 3343.398438 1040.404687 C 3329.101563 1040.404687 3317.539063 1051.967187 3317.539063 1066.264062 C 3317.539063 1080.560937 3329.101563 1092.123437 3343.398438 1092.123437 C 3357.695313 1092.123437 3369.257813 1080.560937 3369.257813 1066.264062 Z M 3369.257813 1066.264062" transform="matrix(.1 0 0 -.1 0 208.31)" fill="none" stroke-width="5.333" stroke="#000" stroke-miterlimit="10" />
  <g clip-path="url(#svg930139106286tikz_00009bR)">
    <use xlink:href="#svg930139106286tikz_00009bS" transform="translate(334 99)" mask="url(#svg930139106286tikz_00009bT)" />
  </g>
  <path d="M 1670.078125 1025.404687 C 1670.078125 873.725 1547.109375 750.75625 1395.390625 750.75625 C 1243.710938 750.75625 1120.78125 873.725 1120.78125 1025.404687 C 1120.78125 1177.084375 1243.710938 1300.053125 1395.390625 1300.053125 C 1547.109375 1300.053125 1670.078125 1177.084375 1670.078125 1025.404687 Z M 1670.078125 1025.404687" transform="matrix(.1 0 0 -.1 0 208.31)" fill="none" stroke-width="5.333" stroke="#000" stroke-miterlimit="10" />
  <path d="M 139.539063 75.71875 C 140.972656 75.71875 142.128906 76.875 142.128906 78.304688 C 142.128906 79.734375 140.972656 80.890625 139.539063 80.890625 C 138.113281 80.890625 136.953125 79.734375 136.953125 78.304688 C 136.953125 76.875 138.113281 75.71875 139.539063 75.71875 Z M 142.011719 78.101563 C 142.011719 76.847656 140.996094 75.835938 139.742188 75.835938 C 138.492188 75.835938 137.476563 76.847656 137.476563 78.101563 C 137.476563 79.355469 138.492188 80.367188 139.742188 80.367188 C 140.996094 80.367188 142.011719 79.355469 142.011719 78.101563 Z M 142.011719 78.101563" fill="#4d84ad" />
  <path d="M 142.011719 78.101563 C 142.011719 79.351563 140.996094 80.367188 139.742188 80.367188 C 138.492188 80.367188 137.476563 79.351563 137.476563 78.101563 C 137.476563 76.847656 138.492188 75.835938 139.742188 75.835938 C 140.996094 75.835938 142.011719 76.847656 142.011719 78.101563 Z M 142.011719 78.101563" fill="#64a6df" />
  <path d="M 1421.289063 1300.053125 C 1421.289063 1285.795312 1409.6875 1274.19375 1395.390625 1274.19375 C 1381.132813 1274.19375 1369.53125 1285.795312 1369.53125 1300.053125 C 1369.53125 1314.35 1381.132813 1325.9125 1395.390625 1325.9125 C 1409.6875 1325.9125 1421.289063 1314.35 1421.289063 1300.053125 Z M 1421.289063 1300.053125" transform="matrix(.1 0 0 -.1 0 208.31)" fill="none" stroke-width="5.333" stroke="#000" stroke-miterlimit="10" />
  <g clip-path="url(#svg930139106286tikz_00009bU)">
    <use xlink:href="#svg930139106286tikz_00009bV" transform="translate(139 76)" mask="url(#svg930139106286tikz_00009bW)" />
  </g>
  <path d="M 2309.84375 1025.404687 C 2309.84375 873.725 2186.914063 750.75625 2035.195313 750.75625 C 1883.515625 750.75625 1760.585938 873.725 1760.585938 1025.404687 C 1760.585938 1177.084375 1883.515625 1300.053125 2035.195313 1300.053125 C 2186.914063 1300.053125 2309.84375 1177.084375 2309.84375 1025.404687 Z M 2309.84375 1025.404687" transform="matrix(.1 0 0 -.1 0 208.31)" fill="none" stroke-width="5.333" stroke="#000" stroke-miterlimit="10" />
  <path d="M 203.519531 75.71875 C 204.949219 75.71875 206.109375 76.875 206.109375 78.304688 C 206.109375 79.734375 204.949219 80.890625 203.519531 80.890625 C 202.09375 80.890625 200.933594 79.734375 200.933594 78.304688 C 200.933594 76.875 202.09375 75.71875 203.519531 75.71875 Z M 205.996094 78.101563 C 205.996094 76.847656 204.984375 75.835938 203.730469 75.835938 C 202.476563 75.835938 201.464844 76.847656 201.464844 78.101563 C 201.464844 79.355469 202.476563 80.367188 203.730469 80.367188 C 204.984375 80.367188 205.996094 79.355469 205.996094 78.101563 Z M 205.996094 78.101563" fill="#4d84ad" />
  <path d="M 205.992188 78.101563 C 205.992188 79.351563 204.976563 80.367188 203.722656 80.367188 C 202.472656 80.367188 201.457031 79.351563 201.457031 78.101563 C 201.457031 76.847656 202.472656 75.835938 203.722656 75.835938 C 204.976563 75.835938 205.992188 76.847656 205.992188 78.101563 Z M 205.992188 78.101563" fill="#64a6df" />
  <path d="M 2061.09375 1300.053125 C 2061.09375 1285.795312 2049.492188 1274.19375 2035.195313 1274.19375 C 2020.9375 1274.19375 2009.335938 1285.795312 2009.335938 1300.053125 C 2009.335938 1314.35 2020.9375 1325.9125 2035.195313 1325.9125 C 2049.492188 1325.9125 2061.09375 1314.35 2061.09375 1300.053125 Z M 2061.09375 1300.053125" transform="matrix(.1 0 0 -.1 0 208.31)" fill="none" stroke-width="5.333" stroke="#000" stroke-miterlimit="10" />
  <g clip-path="url(#svg930139106286tikz_00009bX)">
    <use xlink:href="#svg930139106286tikz_00009bY" transform="translate(203 76)" mask="url(#svg930139106286tikz_00009bZ)" />
  </g>
  <path d="M 2963.945313 1025.404687 C 2963.945313 873.725 2840.976563 750.75625 2689.296875 750.75625 C 2537.617188 750.75625 2414.648438 873.725 2414.648438 1025.404687 C 2414.648438 1177.084375 2537.617188 1300.053125 2689.296875 1300.053125 C 2840.976563 1300.053125 2963.945313 1177.084375 2963.945313 1025.404687 Z M 2963.945313 1025.404687" transform="matrix(.1 0 0 -.1 0 208.31)" fill="none" stroke-width="5.333" stroke="#000" stroke-miterlimit="10" />
  <path d="M 268.929688 75.71875 C 270.359375 75.71875 271.515625 76.875 271.515625 78.304688 C 271.515625 79.734375 270.359375 80.890625 268.929688 80.890625 C 267.503906 80.890625 266.34375 79.734375 266.34375 78.304688 C 266.34375 76.875 267.503906 75.71875 268.929688 75.71875 Z M 271.398438 78.101563 C 271.398438 76.847656 270.386719 75.835938 269.132813 75.835938 C 267.878906 75.835938 266.867188 76.847656 266.867188 78.101563 C 266.867188 79.355469 267.878906 80.367188 269.132813 80.367188 C 270.386719 80.367188 271.398438 79.355469 271.398438 78.101563 Z M 271.398438 78.101563" fill="#4d84ad" />
  <path d="M 271.398438 78.101563 C 271.398438 79.351563 270.386719 80.367188 269.132813 80.367188 C 267.882813 80.367188 266.867188 79.351563 266.867188 78.101563 C 266.867188 76.847656 267.882813 75.835938 269.132813 75.835938 C 270.386719 75.835938 271.398438 76.847656 271.398438 78.101563 Z M 271.398438 78.101563" fill="#64a6df" />
  <path d="M 2715.15625 1300.053125 C 2715.15625 1285.795312 2703.59375 1274.19375 2689.296875 1274.19375 C 2675.039063 1274.19375 2663.4375 1285.795312 2663.4375 1300.053125 C 2663.4375 1314.35 2675.039063 1325.9125 2689.296875 1325.9125 C 2703.59375 1325.9125 2715.15625 1314.35 2715.15625 1300.053125 Z M 2715.15625 1300.053125" transform="matrix(.1 0 0 -.1 0 208.31)" fill="none" stroke-width="5.333" stroke="#000" stroke-miterlimit="10" />
  <g clip-path="url(#svg930139106286tikz_00009ca)">
    <use xlink:href="#svg930139106286tikz_00009cb" transform="translate(269 76)" mask="url(#svg930139106286tikz_00009cc)" />
  </g>
  <g clip-path="url(#svg930139106286tikz_00009cd)">
    <path d="M 3983.710938 1648.451562 C 3983.710938 1496.771875 3860.78125 1373.803125 3709.0625 1373.803125 C 3557.382813 1373.803125 3434.414063 1496.771875 3434.414063 1648.451562 C 3434.414063 1800.13125 3557.382813 1923.139062 3709.0625 1923.139062 C 3860.78125 1923.139062 3983.710938 1800.13125 3983.710938 1648.451562 Z M 3983.710938 1648.451562" transform="matrix(.1 0 0 -.1 0 208.31)" fill="none" stroke-width="5.333" stroke="#000" stroke-miterlimit="10" />
  </g>
  <g clip-path="url(#svg930139106286tikz_00009ce)">
    <path d="M 4587.65625 1016.029687 C 4587.65625 864.35 4464.6875 741.38125 4313.007813 741.38125 C 4161.328125 741.38125 4038.359375 864.35 4038.359375 1016.029687 C 4038.359375 1167.709375 4161.328125 1290.678125 4313.007813 1290.678125 C 4464.6875 1290.678125 4587.65625 1167.709375 4587.65625 1016.029687 Z M 4587.65625 1016.029687" transform="matrix(.1 0 0 -.1 0 208.31)" fill="none" stroke-width="5.333" stroke="#000" stroke-miterlimit="10" />
  </g>
  <path d="M 385.105469 64.546875 C 386.535156 64.546875 387.691406 65.703125 387.691406 67.132813 C 387.691406 68.558594 386.535156 69.71875 385.105469 69.71875 C 383.675781 69.71875 382.519531 68.558594 382.519531 67.132813 C 382.519531 65.703125 383.679688 64.546875 385.105469 64.546875 Z M 387.578125 66.929688 C 387.578125 65.675781 386.566406 64.660156 385.3125 64.660156 C 384.058594 64.660156 383.046875 65.675781 383.046875 66.929688 C 383.046875 68.183594 384.058594 69.195313 385.3125 69.195313 C 386.5625 69.195313 387.578125 68.183594 387.578125 66.929688 Z M 387.578125 66.929688" fill="#4d84ad" />
  <path d="M 387.574219 66.929688 C 387.574219 68.179688 386.558594 69.195313 385.308594 69.195313 C 384.054688 69.195313 383.039063 68.179688 383.039063 66.929688 C 383.039063 65.675781 384.054688 64.660156 385.308594 64.660156 C 386.558594 64.660156 387.574219 65.675781 387.574219 66.929688 Z M 387.574219 66.929688" fill="#64a6df" />
  <path d="M 3876.914063 1411.771875 C 3876.914063 1397.514062 3865.351563 1385.9125 3851.054688 1385.9125 C 3836.757813 1385.9125 3825.195313 1397.514062 3825.195313 1411.771875 C 3825.195313 1426.06875 3836.757813 1437.63125 3851.054688 1437.63125 C 3865.351563 1437.63125 3876.914063 1426.06875 3876.914063 1411.771875 Z M 3876.914063 1411.771875" transform="matrix(.1 0 0 -.1 0 208.31)" fill="none" stroke-width="5.333" stroke="#000" stroke-miterlimit="10" />
  <g clip-path="url(#svg930139106286tikz_00009cf)">
    <use xlink:href="#svg930139106286tikz_00009cg" transform="translate(385 65)" mask="url(#svg930139106286tikz_00009ch)" />
  </g>
  <path d="M 372.976563 74.414063 C 374.40625 74.414063 375.5625 75.574219 375.5625 77.003906 C 375.5625 78.433594 374.40625 79.589844 372.976563 79.589844 C 371.546875 79.589844 370.390625 78.433594 370.390625 77.003906 C 370.390625 75.574219 371.554688 74.414063 372.976563 74.414063 Z M 375.453125 76.800781 C 375.453125 75.546875 374.4375 74.53125 373.1875 74.53125 C 371.933594 74.53125 370.917969 75.546875 370.917969 76.800781 C 370.917969 78.054688 371.933594 79.066406 373.1875 79.066406 C 374.433594 79.066406 375.453125 78.054688 375.453125 76.800781 Z M 375.453125 76.800781" fill="#4d84ad" />
  <path d="M 375.445313 76.800781 C 375.445313 78.050781 374.433594 79.066406 373.179688 79.066406 C 371.929688 79.066406 370.914063 78.050781 370.914063 76.800781 C 370.914063 75.546875 371.929688 74.53125 373.179688 74.53125 C 374.433594 74.53125 375.445313 75.546875 375.445313 76.800781 Z M 375.445313 76.800781" fill="#64a6df" />
  <path d="M 3755.625 1313.060937 C 3755.625 1298.803125 3744.0625 1287.201562 3729.765625 1287.201562 C 3715.507813 1287.201562 3703.90625 1298.803125 3703.90625 1313.060937 C 3703.90625 1327.357812 3715.507813 1338.959375 3729.765625 1338.959375 C 3744.0625 1338.959375 3755.625 1327.357812 3755.625 1313.060937 Z M 3755.625 1313.060937" transform="matrix(.1 0 0 -.1 0 208.31)" fill="none" stroke-width="5.333" stroke="#000" stroke-miterlimit="10" />
  <g clip-path="url(#svg930139106286tikz_00009ci)">
    <use xlink:href="#svg930139106286tikz_00009cj" transform="translate(373 75)" mask="url(#svg930139106286tikz_00009ck)" />
  </g>
  <path d="M 372.976563 129.347656 C 374.40625 129.347656 375.5625 130.503906 375.5625 131.933594 C 375.5625 133.363281 374.40625 134.519531 372.976563 134.519531 C 371.546875 134.519531 370.390625 133.363281 370.390625 131.933594 C 370.390625 130.503906 371.554688 129.347656 372.976563 129.347656 Z M 375.453125 131.730469 C 375.453125 130.476563 374.4375 129.464844 373.1875 129.464844 C 371.933594 129.464844 370.917969 130.476563 370.917969 131.730469 C 370.917969 132.984375 371.933594 133.996094 373.1875 133.996094 C 374.433594 133.996094 375.453125 132.984375 375.453125 131.730469 Z M 375.453125 131.730469" fill="#4d84ad" />
  <path d="M 375.445313 131.730469 C 375.445313 132.980469 374.433594 133.996094 373.179688 133.996094 C 371.929688 133.996094 370.914063 132.980469 370.914063 131.730469 C 370.914063 130.476563 371.929688 129.464844 373.179688 129.464844 C 374.433594 129.464844 375.445313 130.476563 375.445313 131.730469 Z M 375.445313 131.730469" fill="#64a6df" />
  <path d="M 3755.625 763.764062 C 3755.625 749.50625 3744.0625 737.904687 3729.765625 737.904687 C 3715.507813 737.904687 3703.90625 749.50625 3703.90625 763.764062 C 3703.90625 778.060937 3715.507813 789.623437 3729.765625 789.623437 C 3744.0625 789.623437 3755.625 778.060937 3755.625 763.764062 Z M 3755.625 763.764062" transform="matrix(.1 0 0 -.1 0 208.31)" fill="none" stroke-width="5.333" stroke="#000" stroke-miterlimit="10" />
  <g clip-path="url(#svg930139106286tikz_00009cl)">
    <use xlink:href="#svg930139106286tikz_00009cm" transform="translate(373 130)" mask="url(#svg930139106286tikz_00009cn)" />
  </g>
  <path d="M 359.644531 64.546875 C 361.074219 64.546875 362.230469 65.703125 362.230469 67.132813 C 362.230469 68.558594 361.074219 69.71875 359.644531 69.71875 C 358.214844 69.71875 357.058594 68.558594 357.058594 67.132813 C 357.058594 65.703125 358.214844 64.546875 359.644531 64.546875 Z M 362.113281 66.929688 C 362.113281 65.675781 361.101563 64.660156 359.847656 64.660156 C 358.59375 64.660156 357.582031 65.675781 357.582031 66.929688 C 357.582031 68.183594 358.59375 69.195313 359.847656 69.195313 C 361.101563 69.195313 362.113281 68.183594 362.113281 66.929688 Z M 362.113281 66.929688" fill="#4d84ad" />
  <path d="M 362.113281 66.929688 C 362.113281 68.179688 361.101563 69.195313 359.847656 69.195313 C 358.597656 69.195313 357.582031 68.179688 357.582031 66.929688 C 357.582031 65.675781 358.597656 64.660156 359.847656 64.660156 C 361.101563 64.660156 362.113281 65.675781 362.113281 66.929688 Z M 362.113281 66.929688" fill="#64a6df" />
  <path d="M 3622.304688 1411.771875 C 3622.304688 1397.514062 3610.742188 1385.9125 3596.445313 1385.9125 C 3582.1875 1385.9125 3570.585938 1397.514062 3570.585938 1411.771875 C 3570.585938 1426.06875 3582.1875 1437.63125 3596.445313 1437.63125 C 3610.742188 1437.63125 3622.304688 1426.06875 3622.304688 1411.771875 Z M 3622.304688 1411.771875" transform="matrix(.1 0 0 -.1 0 208.31)" fill="none" stroke-width="5.333" stroke="#000" stroke-miterlimit="10" />
  <g clip-path="url(#svg930139106286tikz_00009co)">
    <use xlink:href="#svg930139106286tikz_00009cp" transform="translate(359 65)" mask="url(#svg930139106286tikz_00009cq)" />
  </g>
  <g clip-path="url(#svg930139106286tikz_00009cr)">
    <path d="M 3983.710938 434.935937 C 3983.710938 283.25625 3860.78125 160.2875 3709.0625 160.2875 C 3557.382813 160.2875 3434.414063 283.25625 3434.414063 434.935937 C 3434.414063 586.615625 3557.382813 709.584375 3709.0625 709.584375 C 3860.78125 709.584375 3983.710938 586.615625 3983.710938 434.935937 Z M 3983.710938 434.935937" transform="matrix(.1 0 0 -.1 0 208.31)" fill="none" stroke-width="5.333" stroke="#000" stroke-miterlimit="10" />
  </g>
  <path d="M 385.105469 138.007813 C 386.535156 138.007813 387.691406 139.164063 387.691406 140.59375 C 387.691406 142.023438 386.535156 143.179688 385.105469 143.179688 C 383.675781 143.179688 382.519531 142.023438 382.519531 140.59375 C 382.519531 139.164063 383.679688 138.007813 385.105469 138.007813 Z M 387.578125 140.390625 C 387.578125 139.136719 386.566406 138.125 385.3125 138.125 C 384.058594 138.125 383.046875 139.136719 383.046875 140.390625 C 383.046875 141.644531 384.058594 142.65625 385.3125 142.65625 C 386.5625 142.664063 387.578125 141.644531 387.578125 140.390625 Z M 387.578125 140.390625" fill="#4d84ad" />
  <path d="M 387.574219 140.390625 C 387.574219 141.640625 386.558594 142.65625 385.308594 142.65625 C 384.054688 142.65625 383.039063 141.640625 383.039063 140.390625 C 383.039063 139.140625 384.054688 138.125 385.308594 138.125 C 386.558594 138.125 387.574219 139.140625 387.574219 140.390625 Z M 387.574219 140.390625" fill="#64a6df" />
  <path d="M 3876.914063 677.1625 C 3876.914063 662.865625 3865.351563 651.303125 3851.054688 651.303125 C 3836.757813 651.303125 3825.195313 662.865625 3825.195313 677.1625 C 3825.195313 691.459375 3836.757813 703.021875 3851.054688 703.021875 C 3865.351563 703.021875 3876.914063 691.459375 3876.914063 677.1625 Z M 3876.914063 677.1625" transform="matrix(.1 0 0 -.1 0 208.31)" fill="none" stroke-width="5.333" stroke="#000" stroke-miterlimit="10" />
  <g clip-path="url(#svg930139106286tikz_00009cs)">
    <use xlink:href="#svg930139106286tikz_00009ct" transform="translate(385 138)" mask="url(#svg930139106286tikz_00009cu)" />
  </g>
  <path d="M 359.644531 138.007813 C 361.074219 138.007813 362.230469 139.164063 362.230469 140.59375 C 362.230469 142.023438 361.074219 143.179688 359.644531 143.179688 C 358.214844 143.179688 357.058594 142.023438 357.058594 140.59375 C 357.058594 139.164063 358.214844 138.007813 359.644531 138.007813 Z M 362.113281 140.390625 C 362.113281 139.136719 361.101563 138.125 359.847656 138.125 C 358.59375 138.125 357.582031 139.136719 357.582031 140.390625 C 357.582031 141.644531 358.59375 142.65625 359.847656 142.65625 C 361.101563 142.664063 362.113281 141.644531 362.113281 140.390625 Z M 362.113281 140.390625" fill="#4d84ad" />
  <path d="M 362.113281 140.390625 C 362.113281 141.640625 361.101563 142.65625 359.847656 142.65625 C 358.597656 142.65625 357.582031 141.640625 357.582031 140.390625 C 357.582031 139.140625 358.597656 138.125 359.847656 138.125 C 361.101563 138.125 362.113281 139.140625 362.113281 140.390625 Z M 362.113281 140.390625" fill="#64a6df" />
  <path d="M 3622.304688 677.1625 C 3622.304688 662.865625 3610.742188 651.303125 3596.445313 651.303125 C 3582.1875 651.303125 3570.585938 662.865625 3570.585938 677.1625 C 3570.585938 691.459375 3582.1875 703.021875 3596.445313 703.021875 C 3610.742188 703.021875 3622.304688 691.459375 3622.304688 677.1625 Z M 3622.304688 677.1625" transform="matrix(.1 0 0 -.1 0 208.31)" fill="none" stroke-width="5.333" stroke="#000" stroke-miterlimit="10" />
  <g clip-path="url(#svg930139106286tikz_00009cv)">
    <use xlink:href="#svg930139106286tikz_00009cw" transform="translate(359 138)" mask="url(#svg930139106286tikz_00009cx)" />
  </g>
  <path d="M 408.304688 88.699219 C 409.730469 88.699219 410.890625 89.855469 410.890625 91.285156 C 410.890625 92.714844 409.730469 93.871094 408.304688 93.871094 C 406.875 93.871094 405.71875 92.714844 405.71875 91.285156 C 405.71875 89.855469 406.875 88.699219 408.304688 88.699219 Z M 410.777344 91.082031 C 410.777344 89.828125 409.765625 88.816406 408.511719 88.816406 C 407.257813 88.816406 406.246094 89.828125 406.246094 91.082031 C 406.246094 92.335938 407.257813 93.347656 408.511719 93.347656 C 409.757813 93.351563 410.777344 92.335938 410.777344 91.082031 Z M 410.777344 91.082031" fill="#4d84ad" />
  <path d="M 410.773438 91.082031 C 410.773438 92.332031 409.757813 93.347656 408.507813 93.347656 C 407.253906 93.347656 406.238281 92.332031 406.238281 91.082031 C 406.238281 89.828125 407.253906 88.816406 408.507813 88.816406 C 409.757813 88.816406 410.773438 89.828125 410.773438 91.082031 Z M 410.773438 91.082031" fill="#64a6df" />
  <path d="M 4108.90625 1170.248437 C 4108.90625 1155.951562 4097.304688 1144.389062 4083.046875 1144.389062 C 4068.75 1144.389062 4057.1875 1155.951562 4057.1875 1170.248437 C 4057.1875 1184.545312 4068.75 1196.107812 4083.046875 1196.107812 C 4097.304688 1196.107812 4108.90625 1184.545312 4108.90625 1170.248437 Z M 4108.90625 1170.248437" transform="matrix(.1 0 0 -.1 0 208.31)" fill="none" stroke-width="5.333" stroke="#000" stroke-miterlimit="10" />
  <g clip-path="url(#svg930139106286tikz_00009cy)">
    <use xlink:href="#svg930139106286tikz_00009cz" transform="translate(408 89)" mask="url(#svg930139106286tikz_00009cA)" />
  </g>
  <path d="M 408.304688 118.304688 C 409.730469 118.304688 410.890625 119.464844 410.890625 120.894531 C 410.890625 122.324219 409.730469 123.480469 408.304688 123.480469 C 406.875 123.480469 405.71875 122.324219 405.71875 120.894531 C 405.71875 119.464844 406.875 118.304688 408.304688 118.304688 Z M 410.777344 120.691406 C 410.777344 119.4375 409.765625 118.425781 408.511719 118.425781 C 407.257813 118.425781 406.246094 119.4375 406.246094 120.691406 C 406.246094 121.945313 407.257813 122.957031 408.511719 122.957031 C 409.757813 122.957031 410.777344 121.945313 410.777344 120.691406 Z M 410.777344 120.691406" fill="#4d84ad" />
  <path d="M 410.773438 120.691406 C 410.773438 121.941406 409.757813 122.957031 408.507813 122.957031 C 407.253906 122.957031 406.238281 121.941406 406.238281 120.691406 C 406.238281 119.4375 407.253906 118.425781 408.507813 118.425781 C 409.757813 118.425781 410.773438 119.4375 410.773438 120.691406 Z M 410.773438 120.691406" fill="#64a6df" />
  <path d="M 4108.90625 874.154687 C 4108.90625 859.896875 4097.304688 848.295312 4083.046875 848.295312 C 4068.75 848.295312 4057.1875 859.896875 4057.1875 874.154687 C 4057.1875 888.451562 4068.75 900.053125 4083.046875 900.053125 C 4097.304688 900.053125 4108.90625 888.451562 4108.90625 874.154687 Z M 4108.90625 874.154687" transform="matrix(.1 0 0 -.1 0 208.31)" fill="none" stroke-width="5.333" stroke="#000" stroke-miterlimit="10" />
  <g clip-path="url(#svg930139106286tikz_00009cB)">
    <use xlink:href="#svg930139106286tikz_00009cC" transform="translate(408 119)" mask="url(#svg930139106286tikz_00009cD)" />
  </g>
  <path d="M 2991.25 1013.998437 L 3236.835938 1013.998437" transform="matrix(.1 0 0 -.1 0 208.31)" fill="none" stroke-width="5.333" stroke="#000" stroke-miterlimit="10" />
  <use xlink:href="#svg930139106286tikz_00009cE" transform="translate(321 104)" />
  <path d="M 150.113281 95.195313 C 144.273438 89.355469 134.804688 89.355469 128.964844 95.195313 C 123.128906 101.035156 123.128906 110.503906 128.964844 116.34375 C 134.804688 122.183594 144.273438 122.183594 150.113281 116.34375 C 155.953125 110.503906 155.953125 101.035156 150.113281 95.195313 Z M 150.113281 95.195313" fill="#8b8b8b" />
  <path d="M 149.921875 95 C 144.761719 89.839844 136.394531 89.839844 131.234375 95 C 126.074219 100.160156 126.074219 108.53125 131.234375 113.691406 C 136.394531 118.851563 144.761719 118.851563 149.921875 113.691406 C 155.085938 108.53125 155.085938 100.160156 149.921875 95 Z M 149.921875 95" fill="#e9e8e9" />
  <path d="M 145.96875 105.914063 C 142.757813 105.753906 139.609375 103.265625 138.460938 100.265625 C 137.273438 97.175781 138.359375 93.945313 141.34375 92.984375 C 144.972656 91.816406 149.710938 94.371094 151.128906 98.765625 C 152.488281 102.988281 149.816406 106.105469 145.96875 105.914063 Z M 145.96875 105.914063" fill="#fff" />
  <path d="M 1501.132813 1131.146875 C 1442.734375 1189.545312 1348.046875 1189.545312 1289.648438 1131.146875 C 1231.289063 1072.748437 1231.289063 978.060937 1289.648438 919.6625 C 1348.046875 861.264062 1442.734375 861.264062 1501.132813 919.6625 C 1559.53125 978.060937 1559.53125 1072.748437 1501.132813 1131.146875 Z M 1501.132813 1131.146875" transform="matrix(.1 0 0 -.1 0 208.31)" fill="none" stroke-width="5.333" stroke="#010101" stroke-miterlimit="10" />
  <path d="M 214.09375 95.195313 C 208.253906 89.355469 198.785156 89.355469 192.945313 95.195313 C 187.105469 101.035156 187.105469 110.503906 192.945313 116.34375 C 198.785156 122.183594 208.253906 122.183594 214.09375 116.34375 C 219.933594 110.503906 219.933594 101.035156 214.09375 95.195313 Z M 214.09375 95.195313" fill="#8b8b8b" />
  <path d="M 213.902344 95.003906 C 208.742188 89.839844 200.375 89.839844 195.214844 95.003906 C 190.054688 100.164063 190.054688 108.53125 195.214844 113.691406 C 200.375 118.851563 208.742188 118.851563 213.902344 113.691406 C 219.0625 108.53125 219.0625 100.164063 213.902344 95.003906 Z M 213.902344 95.003906" fill="#e9e8e9" />
  <path d="M 209.949219 105.914063 C 206.738281 105.753906 203.589844 103.265625 202.4375 100.265625 C 201.253906 97.175781 202.339844 93.945313 205.324219 92.984375 C 208.949219 91.816406 213.691406 94.371094 215.109375 98.765625 C 216.46875 102.988281 213.796875 106.105469 209.949219 105.914063 Z M 209.949219 105.914063" fill="#fff" />
  <path d="M 2140.9375 1131.146875 C 2082.539063 1189.545312 1987.851563 1189.545312 1929.453125 1131.146875 C 1871.054688 1072.748437 1871.054688 978.060937 1929.453125 919.6625 C 1987.851563 861.264062 2082.539063 861.264062 2140.9375 919.6625 C 2199.335938 978.060937 2199.335938 1072.748437 2140.9375 1131.146875 Z M 2140.9375 1131.146875" transform="matrix(.1 0 0 -.1 0 208.31)" fill="none" stroke-width="5.333" stroke="#010101" stroke-miterlimit="10" />
  <path d="M 279.503906 95.195313 C 273.664063 89.355469 264.195313 89.355469 258.355469 95.195313 C 252.515625 101.035156 252.515625 110.503906 258.355469 116.34375 C 264.195313 122.183594 273.664063 122.183594 279.503906 116.34375 C 285.34375 110.503906 285.34375 101.035156 279.503906 95.195313 Z M 279.503906 95.195313" fill="#8b8b8b" />
  <path d="M 279.3125 95.003906 C 274.148438 89.84375 265.78125 89.84375 260.621094 95.003906 C 255.460938 100.164063 255.460938 108.53125 260.621094 113.691406 C 265.78125 118.851563 274.148438 118.851563 279.3125 113.691406 C 284.472656 108.53125 284.472656 100.164063 279.3125 95.003906 Z M 279.3125 95.003906" fill="#e9e8e9" />
  <path d="M 275.355469 105.914063 C 272.144531 105.753906 269 103.265625 267.847656 100.265625 C 266.664063 97.175781 267.746094 93.945313 270.734375 92.984375 C 274.359375 91.816406 279.101563 94.371094 280.519531 98.765625 C 281.878906 102.988281 279.207031 106.105469 275.355469 105.914063 Z M 275.355469 105.914063" fill="#fff" />
  <path d="M 2795.039063 1131.146875 C 2736.640625 1189.545312 2641.953125 1189.545312 2583.554688 1131.146875 C 2525.15625 1072.748437 2525.15625 978.060937 2583.554688 919.6625 C 2641.953125 861.264062 2736.640625 861.264062 2795.039063 919.6625 C 2853.4375 978.060937 2853.4375 1072.748437 2795.039063 1131.146875 Z M 2795.039063 1131.146875" transform="matrix(.1 0 0 -.1 0 208.31)" fill="none" stroke-width="5.333" stroke="#010101" stroke-miterlimit="10" />
  <path d="M 441.871094 95.195313 C 436.03125 89.355469 426.5625 89.355469 420.722656 95.195313 C 414.882813 101.035156 414.882813 110.503906 420.722656 116.34375 C 426.5625 122.183594 436.03125 122.183594 441.871094 116.34375 C 447.710938 110.503906 447.710938 101.035156 441.871094 95.195313 Z M 441.871094 95.195313" fill="#8b8b8b" />
  <path d="M 441.679688 95.003906 C 436.519531 89.84375 428.148438 89.84375 422.988281 95.003906 C 417.828125 100.164063 417.828125 108.53125 422.988281 113.691406 C 428.148438 118.851563 436.519531 118.851563 441.679688 113.691406 C 446.839844 108.53125 446.839844 100.164063 441.679688 95.003906 Z M 441.679688 95.003906" fill="#e9e8e9" />
  <path d="M 437.726563 105.914063 C 434.515625 105.753906 431.367188 103.265625 430.21875 100.265625 C 429.03125 97.175781 430.117188 93.945313 433.101563 92.984375 C 436.730469 91.816406 441.46875 94.371094 442.886719 98.765625 C 444.246094 102.988281 441.574219 106.105469 437.726563 105.914063 Z M 437.726563 105.914063" fill="#fff" />
  <path d="M 4418.710938 1131.146875 C 4360.3125 1189.545312 4265.625 1189.545312 4207.226563 1131.146875 C 4148.828125 1072.748437 4148.828125 978.060937 4207.226563 919.6625 C 4265.625 861.264062 4360.3125 861.264062 4418.710938 919.6625 C 4477.109375 978.060937 4477.109375 1072.748437 4418.710938 1131.146875 Z M 4418.710938 1131.146875" transform="matrix(.1 0 0 -.1 0 208.31)" fill="none" stroke-width="5.333" stroke="#010101" stroke-miterlimit="10" />
  <path d="M 381.480469 32.890625 C 375.640625 27.050781 366.171875 27.050781 360.332031 32.890625 C 354.492188 38.730469 354.492188 48.199219 360.332031 54.039063 C 366.171875 59.878906 375.640625 59.878906 381.480469 54.039063 C 387.320313 48.199219 387.320313 38.730469 381.480469 32.890625 Z M 381.480469 32.890625" fill="#8b8b8b" />
  <path d="M 381.289063 32.699219 C 376.128906 27.535156 367.761719 27.535156 362.601563 32.699219 C 357.4375 37.859375 357.4375 46.226563 362.601563 51.386719 C 367.761719 56.546875 376.128906 56.546875 381.289063 51.386719 C 386.449219 46.226563 386.449219 37.859375 381.289063 32.699219 Z M 381.289063 32.699219" fill="#e9e8e9" />
  <path d="M 377.335938 43.605469 C 374.125 43.445313 370.976563 40.960938 369.824219 37.960938 C 368.640625 34.871094 369.726563 31.640625 372.710938 30.679688 C 376.339844 29.511719 381.078125 32.066406 382.496094 36.460938 C 383.855469 40.683594 381.183594 43.800781 377.335938 43.605469 Z M 377.335938 43.605469" fill="#fff" />
  <path d="M 3814.804688 1754.19375 C 3756.40625 1812.592187 3661.71875 1812.592187 3603.320313 1754.19375 C 3544.921875 1695.795312 3544.921875 1601.107812 3603.320313 1542.709375 C 3661.71875 1484.310937 3756.40625 1484.310937 3814.804688 1542.709375 C 3873.203125 1601.107812 3873.203125 1695.795312 3814.804688 1754.19375 Z M 3814.804688 1754.19375" transform="matrix(.1 0 0 -.1 0 208.31)" fill="none" stroke-width="5.333" stroke="#010101" stroke-miterlimit="10" />
  <path d="M 381.480469 154.242188 C 375.640625 148.402344 366.171875 148.402344 360.332031 154.242188 C 354.492188 160.082031 354.492188 169.550781 360.332031 175.390625 C 366.171875 181.230469 375.640625 181.230469 381.480469 175.390625 C 387.320313 169.550781 387.320313 160.082031 381.480469 154.242188 Z M 381.480469 154.242188" fill="#8b8b8b" />
  <path d="M 381.289063 154.050781 C 376.128906 148.890625 367.757813 148.890625 362.597656 154.050781 C 357.4375 159.210938 357.4375 167.578125 362.597656 172.738281 C 367.757813 177.898438 376.128906 177.898438 381.289063 172.738281 C 386.449219 167.578125 386.449219 159.210938 381.289063 154.050781 Z M 381.289063 154.050781" fill="#e9e8e9" />
  <path d="M 377.335938 164.960938 C 374.125 164.800781 370.976563 162.316406 369.824219 159.3125 C 368.640625 156.222656 369.726563 152.992188 372.710938 152.03125 C 376.339844 150.863281 381.078125 153.417969 382.496094 157.8125 C 383.855469 162.035156 381.183594 165.152344 377.335938 164.960938 Z M 377.335938 164.960938" fill="#fff" />
  <path d="M 3814.804688 540.678125 C 3756.40625 599.076562 3661.71875 599.076562 3603.320313 540.678125 C 3544.921875 482.279687 3544.921875 387.592187 3603.320313 329.19375 C 3661.71875 270.795312 3756.40625 270.795312 3814.804688 329.19375 C 3873.203125 387.592187 3873.203125 482.279687 3814.804688 540.678125 Z M 3814.804688 540.678125" transform="matrix(.1 0 0 -.1 0 208.31)" fill="none" stroke-width="5.333" stroke="#010101" stroke-miterlimit="10" />
  <path d="M61.675781 102.378906L59.042969 102.378906 59.042969 102.714844C59.511719 102.714844 59.710938 102.78125 59.890625 102.992188 60.058594 103.183594 60.101563 103.484375 60.101563 104.152344L60.101563 107.769531 60.046875 107.769531 55.921875 102.378906 54.023438 102.378906 54.023438 102.714844C54.523438 102.714844 54.714844 102.828125 55.070313 103.28125L55.070313 108.046875C55.070313 109.175781 54.90625 109.375 54.023438 109.375L54.023438 109.710938 56.632813 109.710938 56.632813 109.375C55.796875 109.375 55.617188 109.164063 55.617188 108.046875L55.617188 103.828125 55.675781 103.828125 60.292969 109.800781 60.660156 109.800781 60.660156 104.210938C60.660156 103.40625 60.773438 103.09375 60.953125 102.9375 61.117188 102.78125 61.273438 102.714844 61.675781 102.714844L61.675781 102.378906M377.277344 102.378906L374.644531 102.378906 374.644531 102.714844C375.113281 102.714844 375.3125 102.78125 375.492188 102.992188 375.660156 103.183594 375.703125 103.484375 375.703125 104.152344L375.703125 107.769531 375.648438 107.769531 371.519531 102.378906 369.621094 102.378906 369.621094 102.714844C370.125 102.714844 370.316406 102.828125 370.671875 103.28125L370.671875 108.046875C370.671875 109.175781 370.503906 109.375 369.621094 109.375L369.621094 109.710938 372.234375 109.710938 372.234375 109.375C371.398438 109.375 371.21875 109.164063 371.21875 108.046875L371.21875 103.828125 371.273438 103.828125 375.894531 109.800781 376.261719 109.800781 376.261719 104.210938C376.261719 103.40625 376.371094 103.09375 376.550781 102.9375 376.71875 102.78125 376.875 102.714844 377.277344 102.714844L377.277344 102.378906M138.210938 103.851563C138.210938 102.984375 138.242188 102.714844 139.304688 102.714844L139.304688 102.378906 136.101563 102.378906 136.101563 102.714844C137.128906 102.714844 137.183594 102.984375 137.183594 103.851563L137.183594 108.25C137.183594 109.242188 137.105469 109.375 136.101563 109.375L136.101563 109.710938 139.304688 109.710938 139.304688 109.375C138.300781 109.375 138.210938 109.230469 138.210938 108.25L138.210938 106.160156 141.867188 106.160156 141.867188 108.25C141.867188 109.21875 141.78125 109.375 140.789063 109.375L140.789063 109.710938 143.976563 109.710938 143.976563 109.375C142.964844 109.375 142.882813 109.21875 142.882813 108.25L142.882813 103.851563C142.882813 102.972656 142.917969 102.714844 143.976563 102.714844L143.976563 102.378906 140.789063 102.378906 140.789063 102.714844C141.8125 102.714844 141.867188 102.984375 141.867188 103.851563L141.867188 105.726563 138.210938 105.726563 138.210938 103.851563M202.511719 103.851563C202.511719 102.984375 202.542969 102.714844 203.601563 102.714844L203.601563 102.378906 200.402344 102.378906 200.402344 102.714844C201.429688 102.714844 201.484375 102.984375 201.484375 103.851563L201.484375 108.25C201.484375 109.242188 201.40625 109.375 200.402344 109.375L200.402344 109.710938 203.601563 109.710938 203.601563 109.375C202.601563 109.375 202.511719 109.230469 202.511719 108.25L202.511719 106.160156 206.167969 106.160156 206.167969 108.25C206.167969 109.21875 206.078125 109.375 205.089844 109.375L205.089844 109.710938 208.277344 109.710938 208.277344 109.375C207.261719 109.375 207.183594 109.21875 207.183594 108.25L207.183594 103.851563C207.183594 102.972656 207.21875 102.714844 208.277344 102.714844L208.277344 102.378906 205.089844 102.378906 205.089844 102.714844C206.113281 102.714844 206.167969 102.984375 206.167969 103.851563L206.167969 105.726563 202.511719 105.726563 202.511719 103.851563M267.609375 103.851563C267.609375 102.984375 267.644531 102.714844 268.703125 102.714844L268.703125 102.378906 265.503906 102.378906 265.503906 102.714844C266.527344 102.714844 266.585938 102.984375 266.585938 103.851563L266.585938 108.25C266.585938 109.242188 266.507813 109.375 265.503906 109.375L265.503906 109.710938 268.703125 109.710938 268.703125 109.375C267.699219 109.375 267.609375 109.230469 267.609375 108.25L267.609375 106.160156 271.269531 106.160156 271.269531 108.25C271.269531 109.21875 271.179688 109.375 270.1875 109.375L270.1875 109.710938 273.378906 109.710938 273.378906 109.375C272.363281 109.375 272.285156 109.21875 272.285156 108.25L272.285156 103.851563C272.285156 102.972656 272.320313 102.714844 273.378906 102.714844L273.378906 102.378906 270.1875 102.378906 270.1875 102.714844C271.214844 102.714844 271.269531 102.984375 271.269531 103.851563L271.269531 105.726563 267.609375 105.726563 267.609375 103.851563M430.109375 103.851563C430.109375 102.984375 430.144531 102.714844 431.203125 102.714844L431.203125 102.378906 428.003906 102.378906 428.003906 102.714844C429.027344 102.714844 429.085938 102.984375 429.085938 103.851563L429.085938 108.25C429.085938 109.242188 429.007813 109.375 428.003906 109.375L428.003906 109.710938 431.203125 109.710938 431.203125 109.375C430.199219 109.375 430.109375 109.230469 430.109375 108.25L430.109375 106.160156 433.769531 106.160156 433.769531 108.25C433.769531 109.21875 433.679688 109.375 432.6875 109.375L432.6875 109.710938 435.878906 109.710938 435.878906 109.375C434.863281 109.375 434.785156 109.21875 434.785156 108.25L434.785156 103.851563C434.785156 102.972656 434.820313 102.714844 435.878906 102.714844L435.878906 102.378906 432.6875 102.378906 432.6875 102.714844C433.714844 102.714844 433.769531 102.984375 433.769531 103.851563L433.769531 105.726563 430.109375 105.726563 430.109375 103.851563M369.710938 40.550781C369.710938 39.683594 369.742188 39.414063 370.804688 39.414063L370.804688 39.078125 367.601563 39.078125 367.601563 39.414063C368.628906 39.414063 368.683594 39.683594 368.683594 40.550781L368.683594 44.949219C368.683594 45.941406 368.605469 46.074219 367.601563 46.074219L367.601563 46.410156 370.804688 46.410156 370.804688 46.074219C369.800781 46.074219 369.710938 45.929688 369.710938 44.949219L369.710938 42.863281 373.367188 42.863281 373.367188 44.949219C373.367188 45.917969 373.28125 46.074219 372.289063 46.074219L372.289063 46.410156 375.476563 46.410156 375.476563 46.074219C374.464844 46.074219 374.382813 45.917969 374.382813 44.949219L374.382813 40.550781C374.382813 39.671875 374.417969 39.414063 375.476563 39.414063L375.476563 39.078125 372.289063 39.078125 372.289063 39.414063C373.3125 39.414063 373.367188 39.683594 373.367188 40.550781L373.367188 42.425781 369.710938 42.425781 369.710938 40.550781M369.710938 162.453125C369.710938 161.582031 369.742188 161.316406 370.804688 161.316406L370.804688 160.980469 367.601563 160.980469 367.601563 161.316406C368.628906 161.316406 368.683594 161.582031 368.683594 162.453125L368.683594 166.847656C368.683594 167.839844 368.605469 167.976563 367.601563 167.976563L367.601563 168.308594 370.804688 168.308594 370.804688 167.976563C369.800781 167.976563 369.710938 167.832031 369.710938 166.847656L369.710938 164.761719 373.367188 164.761719 373.367188 166.847656C373.367188 167.820313 373.28125 167.976563 372.289063 167.976563L372.289063 168.308594 375.476563 168.308594 375.476563 167.976563C374.464844 167.976563 374.382813 167.820313 374.382813 166.847656L374.382813 162.453125C374.382813 161.570313 374.417969 161.316406 375.476563 161.316406L375.476563 160.980469 372.289063 160.980469 372.289063 161.316406C373.3125 161.316406 373.367188 161.582031 373.367188 162.453125L373.367188 164.328125 369.710938 164.328125 369.710938 162.453125M108.441406 104.5L108.441406 103.742188 105.515625 103.742188 105.515625 100.785156 104.714844 100.785156 104.714844 103.742188 101.792969 103.742188 101.792969 104.5 104.714844 104.5 104.714844 107.457031 105.515625 107.457031 105.515625 104.5 108.441406 104.5M174.539063 104.5L174.539063 103.742188 171.617188 103.742188 171.617188 100.785156 170.8125 100.785156 170.8125 103.742188 167.890625 103.742188 167.890625 104.5 170.8125 104.5 170.8125 107.457031 171.617188 107.457031 171.617188 104.5 174.539063 104.5M238.742188 104.5L238.742188 103.742188 235.816406 103.742188 235.816406 100.785156 235.015625 100.785156 235.015625 103.742188 232.09375 103.742188 232.09375 104.5 235.015625 104.5 235.015625 107.457031 235.816406 107.457031 235.816406 104.5 238.742188 104.5" />
</svg>